<svg width="485" height="480" viewBox="0 0 485 480" fill="none" xmlns="http://www.w3.org/2000/svg">
<path d="M480 248C480 244.3 478.9 239.5 474.8 234.7C478.2 231.6 480 228 480 224C480 204.9 441.6 201 424 200.2V176H408V200.2C395.4 200.7 383.7 202.4 374.4 205C370.4 201.9 365.4 200.1 360 200.1H304V184.1H328C350.1 184.1 368 166.2 368 144.1V104.1C368 99.7 364.4 96.1 360 96.1H352V46.5C361.3 43.2 368 34.4 368 24C368 10.8 357.2 0 344 0C330.8 0 320 10.8 320 24C320 34.4 326.7 43.2 336 46.5V96H328C323.6 96 320 99.6 320 104V128C320 132.4 316.4 136 312 136H279.1C289.5 125.8 296 111.7 296 96C296 65.1 270.9 40 240 40C209.1 40 184 65.1 184 96C184 111.7 190.5 125.8 200.9 136H168C163.6 136 160 132.4 160 128V104C160 99.6 156.4 96 152 96H144V46.5C153.3 43.2 160 34.4 160 24C160 10.8 149.2 0 136 0C122.8 0 112 10.8 112 24C112 34.4 118.7 43.2 128 46.5V96H120C115.6 96 112 99.6 112 104V144C112 166.1 129.9 184 152 184H176V200H120C114.6 200 109.6 201.9 105.6 204.9C96.4 202.3 84.6 200.6 72 200.1V176H56V200.2C38.4 201 0 204.9 0 224C0 228 1.8 231.6 5.2 234.7C1.1 239.5 0 244.3 0 248C0 267.2 27 278.1 56 279.7V312H24C10.8 312 0 322.8 0 336V384C0 397.2 10.8 408 24 408H56V464H32V480H96V464H72V408H104C117.2 408 128 397.2 128 384V336C128 322.8 117.2 312 104 312H72V279.6C83.7 278.9 94.5 276.8 103.6 273.4C107.9 277.5 113.7 280 120 280H187C161.1 297.2 144 326.6 144 360C144 386.5 154.8 410.6 172.3 428L160.3 469.8C159.6 472.2 160.1 474.8 161.6 476.8C163.1 478.8 165.5 480 168 480H200C203.6 480 206.7 477.6 207.7 474.2L213.9 452.3C222.2 454.7 230.9 456 240 456C249 456 257.8 454.7 266.1 452.3L272.3 474.2C273.3 477.6 276.4 480 280 480H312C314.5 480 316.9 478.8 318.4 476.8C319.9 474.8 320.4 472.2 319.7 469.8L307.7 428C325.2 410.6 336 386.6 336 360C336 326.6 318.9 297.2 293 280H360C366.4 280 372.1 277.5 376.4 273.4C385.5 276.8 396.2 279 408 279.6V312H376C362.8 312 352 322.8 352 336V384C352 397.2 362.8 408 376 408H408V464H384V480H448V464H424V408H456C469.2 408 480 397.2 480 384V336C480 322.8 469.2 312 456 312H424V279.7C453 278 480 267.2 480 248ZM112 384C112 388.4 108.4 392 104 392H24C19.6 392 16 388.4 16 384V372.3L32.6 361.3L60.4 375.2C61.5 375.8 62.8 376 64 376C65.2 376 66.5 375.7 67.6 375.2L95.4 361.3L112 372.3V384ZM104 328C108.4 328 112 331.6 112 336V353.1L100.4 345.4C98 343.8 94.9 343.6 92.4 344.9L64 359.1L35.6 344.9C33 343.6 30 343.8 27.6 345.4L16 353.1V336C16 331.6 19.6 328 24 328H104ZM64 264C34.2 264 16 253.6 16 248C16 246.8 17.2 244.7 20.3 242.4C20.4 242.4 20.5 242.4 20.6 242.5C22.7 243.1 25 243.7 27.4 244.3C28 244.5 28.7 244.6 29.4 244.7C31.9 245.2 34.5 245.7 37.2 246.1C37.2 246.1 38 246.2 38.1 246.2C39.7 246.4 41.3 246.6 43 246.8L44.6 247C46 247.2 47.5 247.3 49.6 247.4L51 247.5C52.5 247.6 54 247.7 56.2 247.8H57.4C59.6 247.9 61.8 247.9 64 247.9C66.2 247.9 68.4 247.9 70.5 247.8L72.5 247.7C74 247.6 75.5 247.6 77 247.5L79 247.3C80.5 247.2 82 247.1 83.4 246.9L85.1 246.7C86.8 246.5 88.4 246.3 89.9 246.1C89.9 246.1 90.7 246 90.8 246H90.9C92.7 245.7 94.3 245.5 96 245.2V256C96 257.1 96.1 258.2 96.2 259.2C87.2 262.3 75.9 264 64 264ZM96 224V228.9C93.6 229.4 91.1 229.9 88.5 230.3L87.7 230.4C86.3 230.6 84.8 230.8 83.4 230.9L81.8 231.1C80.5 231.2 79.2 231.3 77.2 231.5L76 231.6C74.6 231.7 73.3 231.8 71.9 231.8H71.1H70.1C66.1 231.9 62.1 231.9 57.9 231.8L56.2 231.7C54.8 231.6 53.4 231.6 52 231.5L50.2 231.4C48.8 231.3 47.5 231.2 46.2 231L44.7 230.9C43.3 230.7 41.9 230.6 40.5 230.4C40.2 230.4 40 230.3 39.8 230.3L39.5 230.4V230.3C32.6 229.3 26.6 227.8 22.1 226.1C19.9 225.3 18.4 224.5 17.4 223.9C22.9 220.6 39 216 64 216C75.8 216 87.4 217.2 96.5 219.2C96.2 220.8 96 222.4 96 224ZM344 16C348.4 16 352 19.6 352 24C352 28.4 348.4 32 344 32C339.6 32 336 28.4 336 24C336 19.6 339.6 16 344 16ZM200 96C200 73.9 217.9 56 240 56C262.1 56 280 73.9 280 96C280 118.1 262.1 136 240 136C217.9 136 200 118.1 200 96ZM136 16C140.4 16 144 19.6 144 24C144 28.4 140.4 32 136 32C131.6 32 128 28.4 128 24C128 19.6 131.6 16 136 16ZM152 168C138.8 168 128 157.2 128 144V112H144V128C144 141.2 154.8 152 168 152H312C325.2 152 336 141.2 336 128V112H352V144C352 157.2 341.2 168 328 168H296C291.6 168 288 171.6 288 176V200H240H192V176C192 171.6 188.4 168 184 168H152ZM120 264C116.9 264 114.3 262.2 113 259.6C112.8 259.2 112.7 258.9 112.5 258.5C112.2 257.7 112 256.9 112 256V235.2V224C112 222.2 112.6 220.9 113.3 219.8C114.7 217.5 117.1 216 120 216H184H232V264H120ZM194 464H178.6L185.7 439.1C187.3 440.2 189 441.2 190.6 442.2C191.2 442.6 191.9 443 192.5 443.4C194.2 444.4 195.9 445.3 197.7 446.1C198.2 446.3 198.5 446.5 198.9 446.7L194 464ZM286 464L281 446.7C281.4 446.5 281.7 446.3 282.1 446.1C283.9 445.2 285.6 444.3 287.3 443.4C288 443 288.6 442.6 289.2 442.2C290.9 441.2 292.5 440.2 294.1 439.1L301.4 464H286ZM320 360C320 383.8 309.5 405.2 292.9 419.9C291.4 421.2 289.9 422.5 288.3 423.7C287.9 424 287.5 424.3 287.1 424.6C285.5 425.8 283.9 426.9 282.2 427.9C281.8 428.2 281.4 428.4 281 428.7C279.3 429.7 277.5 430.7 275.7 431.6C275.4 431.8 275 431.9 274.7 432.1C272.8 433 270.8 433.9 268.8 434.7C259.8 438.2 250.2 440.1 240 440.1C229.8 440.1 220.1 438.1 211.2 434.6C209.2 433.8 207.3 433 205.3 432C205 431.8 204.6 431.7 204.3 431.5C202.5 430.6 200.7 429.6 199 428.6C198.6 428.4 198.2 428.1 197.8 427.8C196.1 426.8 194.5 425.7 192.9 424.5C192.5 424.2 192.1 423.9 191.7 423.6C190.1 422.4 188.6 421.2 187.1 419.8C170.5 405.1 160 383.8 160 359.9C160 315.8 195.9 279.9 240 279.9C284.1 279.9 320 315.9 320 360ZM368 235.2V256C368 256.9 367.8 257.7 367.5 258.5C367.4 258.9 367.2 259.3 367 259.6C365.7 262.2 363.1 264 360 264H248V216H296H360C362.9 216 365.2 217.6 366.7 219.8C367.4 220.8 368 222.2 368 224V235.2ZM416.1 216C441.1 216 457.2 220.6 462.6 223.9C461.5 224.5 460.1 225.3 457.9 226.1C453.4 227.8 447.3 229.3 440.5 230.3L439.7 230.4C438.3 230.6 436.8 230.8 435.4 230.9L433.8 231.1C432.5 231.2 431.2 231.3 429.2 231.5L428 231.6C426.6 231.7 425.3 231.8 423.9 231.8H423.1H422.1C418.1 231.9 414.1 231.9 409.9 231.8L408.2 231.7C406.8 231.6 405.4 231.6 404 231.5L402.2 231.4C400.8 231.3 399.5 231.2 398.2 231L396.7 230.8C395.2 230.6 393.8 230.5 392.4 230.3L391.6 230.2C389 229.8 386.4 229.4 384.1 228.8V224C384.1 222.3 383.9 220.7 383.6 219.2C392.8 217.2 404.3 216 416.1 216ZM464 384C464 388.4 460.4 392 456 392H376C371.6 392 368 388.4 368 384V372.3L384.6 361.3L412.4 375.2C413.5 375.8 414.8 376 416 376C417.2 376 418.5 375.7 419.6 375.2L447.4 361.3L464 372.3V384ZM456 328C460.4 328 464 331.6 464 336V353.1L452.4 345.4C450 343.8 446.9 343.6 444.4 344.9L416 359.1L387.6 344.9C385 343.6 382 343.8 379.6 345.4L368 353.1V336C368 331.6 371.6 328 376 328H456ZM416 264C404.1 264 392.8 262.3 383.8 259.2C384 258.1 384 257.1 384 256V245.3C385.6 245.6 387.4 245.9 389.1 246.1H389.2C389.2 246.1 390 246.2 390.1 246.2C391.7 246.4 393.3 246.6 394.9 246.8C394.9 246.8 394.9 246.8 395 246.8L396.6 247C398 247.2 399.5 247.3 401.6 247.4L403 247.5C404.5 247.6 406 247.7 408.2 247.8H409.4C411.6 247.9 413.8 247.9 416 247.9C418.2 247.9 420.4 247.9 422.5 247.8L424.5 247.7C426 247.6 427.5 247.6 429 247.5L431 247.3C432.5 247.2 434 247.1 435.4 246.9L437.1 246.7C438.8 246.5 440.4 246.3 441.9 246.1C441.9 246.1 442.7 246 442.8 246C445.6 245.6 448.1 245.1 450.6 244.6C451.3 244.5 451.9 244.3 452.6 244.2C455 243.7 457.2 243.1 459.3 242.4C459.4 242.4 459.5 242.3 459.6 242.3C462.8 244.6 463.9 246.7 463.9 247.9C464 253.6 445.8 264 416 264Z" fill="#003f48"/>
<path d="M240 328C222.4 328 208 342.4 208 360C208 377.6 222.4 392 240 392C257.6 392 272 377.6 272 360C272 342.4 257.6 328 240 328ZM240 376C231.2 376 224 368.8 224 360C224 351.2 231.2 344 240 344C248.8 344 256 351.2 256 360C256 368.8 248.8 376 240 376Z" fill="#003f48"/>
<path d="M452.8 1.59902C450.4 -0.200977 447.1 -0.500977 444.4 0.799023C441.7 2.19902 440 4.89902 440 7.99902V49.499C437.5 48.599 434.8 47.999 432 47.999C418.8 47.999 408 58.799 408 71.999C408 85.199 418.8 95.999 432 95.999C445.2 95.999 456 85.199 456 71.999V23.999L475.2 38.399L484.8 25.599L452.8 1.59902ZM432 79.999C427.6 79.999 424 76.399 424 71.999C424 67.599 427.6 63.999 432 63.999C436.4 63.999 440 67.599 440 71.999C440 76.399 436.4 79.999 432 79.999Z" fill="#003f48"/>
<path d="M44.8 57.599C42.4 55.799 39.1 55.499 36.4 56.799C33.7 58.199 32 60.999 32 63.999V105.499C29.5 104.599 26.8 103.999 24 103.999C10.8 103.999 0 114.799 0 127.999C0 141.199 10.8 151.999 24 151.999C37.2 151.999 48 141.199 48 127.999V79.999L67.2 94.399L76.8 81.599L44.8 57.599ZM24 135.999C19.6 135.999 16 132.399 16 127.999C16 123.599 19.6 119.999 24 119.999C28.4 119.999 32 123.599 32 127.999C32 132.399 28.4 135.999 24 135.999Z" fill="#003f48"/>
<path d="M152 232H136V248H152V232Z" fill="#003f48"/>
<path d="M184 232H168V248H184V232Z" fill="#003f48"/>
<path d="M216 232H200V248H216V232Z" fill="#003f48"/>
<path d="M280 232H264V248H280V232Z" fill="#003f48"/>
<path d="M312 232H296V248H312V232Z" fill="#003f48"/>
<path d="M344 232H328V248H344V232Z" fill="#003f48"/>
</svg>
