<svg width="476" height="481" viewBox="0 0 476 481" fill="none" xmlns="http://www.w3.org/2000/svg">
<path d="M472.896 139.674L433.752 73.114L392.896 3.666C390.024 -1.222 381.984 -1.222 379.104 3.666L349.104 54.666L338.384 72.89L320.192 50.65C317.152 46.938 310.848 46.938 307.808 50.65L235.808 138.65C233.848 141.042 233.448 144.346 234.768 147.146C236.088 149.946 238.912 151.722 242 151.722H386H466C468.872 151.722 471.52 150.186 472.944 147.698C474.368 145.202 474.352 142.146 472.896 139.674ZM386 23.498L408.728 62.138L397.576 56.562C395 55.282 391.944 55.466 389.56 57.058L372.216 68.618L365.44 58.458L386 23.498ZM314 68.354L336.808 96.226L334.904 100.034L318.44 89.058C315.752 87.266 312.256 87.266 309.568 89.058L291.864 100.858L289.728 98.018L314 68.354ZM258.88 135.722L279.288 110.778L283.6 116.522C285.168 118.61 287.568 119.722 290 119.722C291.528 119.722 293.072 119.282 294.432 118.378L314 105.338L333.56 118.378C335.472 119.65 337.824 120.026 340.056 119.45C342.272 118.866 344.128 117.346 345.16 115.298L347.912 109.794L369.12 135.722H258.88ZM389.792 135.722L349.184 86.09L356.424 73.778L363.344 84.154C364.888 86.474 367.424 87.722 370.008 87.722C371.528 87.722 373.072 87.29 374.44 86.378L394.576 72.954L422.424 86.882C422.744 87.042 423.104 87.026 423.432 87.138L452.008 135.722H389.792Z" fill="#003f48"/>
<path d="M281.504 431.723C263.584 431.723 249 446.299 249 464.219V472.219C249 476.635 252.584 480.219 257 480.219H305C309.032 480.219 312.44 477.219 312.936 473.211L313.936 465.211C313.984 464.891 314 464.555 314 464.219C314 446.299 299.424 431.723 281.504 431.723ZM297.936 464.219H265C265 455.123 272.4 447.723 281.496 447.723C290.448 447.723 297.752 454.883 297.992 463.771L297.936 464.219Z" fill="#003f48"/>
<path d="M441.504 431.723C423.584 431.723 409.008 446.299 409.008 464.219C409.008 464.571 409.032 464.923 409.08 465.275L410.08 472.779C410.6 476.755 413.992 479.723 418 479.723H466C470.416 479.723 474 476.139 474 471.723V464.219C474 446.299 459.424 431.723 441.504 431.723ZM425.008 463.723C425.272 454.859 432.568 447.723 441.504 447.723C450.44 447.723 457.728 454.859 458 463.723H425.008Z" fill="#003f48"/>
<path d="M130 463.723H114V479.723H130V463.723Z" fill="#003f48"/>
<path d="M178 447.723H162V463.723H178V447.723Z" fill="#003f48"/>
<path d="M226 431.723H210V447.723H226V431.723Z" fill="#003f48"/>
<path d="M447.392 365.395L475.616 359.563L472.376 343.891L437.816 351.035L427.616 335.723H458C460.912 335.723 463.592 334.139 465 331.587C466.408 329.035 466.32 325.923 464.768 323.459L427.16 263.723H450C453.312 263.723 456.28 261.683 457.472 258.587C458.656 255.491 457.816 251.987 455.352 249.771L375.352 177.771C372.384 175.099 367.896 175.019 364.84 177.603L279.504 249.603C276.936 251.771 276 255.307 277.152 258.459C278.312 261.627 281.312 263.723 284.664 263.723H309.712L270.008 323.283C268.368 325.739 268.216 328.891 269.608 331.491C271.008 334.099 273.72 335.723 276.664 335.723H301.296L258.28 397.179L237.736 402.491L220.464 406.955L177.984 278.387L177.688 247.643C177.648 243.259 174.072 239.723 169.688 239.723H140.8L120.32 223.339C146.048 220.427 166.52 200.035 169.568 174.355L185.824 165.683C194.944 160.819 201.624 152.275 204.144 142.251C206.664 132.227 204.824 121.539 199.088 112.931C188.56 97.1547 168.008 91.9867 151.272 100.907L139.696 107.075C130.008 99.7307 118.248 95.7227 106 95.7227C75.12 95.7227 50 120.843 50 151.723C50 154.499 50.248 157.403 50.768 160.627C51.176 163.179 52.792 165.379 55.104 166.531C56.032 166.987 57.04 167.139 58.04 167.219C58.032 167.387 58 167.555 58 167.723C58 177.683 60.648 187.035 65.224 195.147L47.744 193.203C36.6 192.003 25.88 198.795 22.32 209.459L1.432 272.131C-1.04 279.539 0.168 287.419 4.736 293.755C9.296 300.091 16.392 303.723 24.2 303.723H34V327.723C34 330.923 35.904 333.819 38.848 335.075L42.512 336.643L49.256 451.235L0 463.979L4.008 479.475L256.088 414.283C256.152 414.331 256.232 414.347 256.304 414.387C256.744 414.675 257.216 414.883 257.696 415.075C257.928 415.171 258.128 415.299 258.368 415.363C259.104 415.587 259.872 415.723 260.664 415.723H339.6L332.728 470.731C332.44 473.011 333.152 475.299 334.672 477.019C336.184 478.739 338.376 479.723 340.664 479.723H388.664C390.96 479.723 393.144 478.739 394.664 477.019C396.184 475.299 396.888 473.011 396.608 470.731L389.728 415.723H466C468.952 415.723 471.664 414.099 473.056 411.499C474.448 408.899 474.296 405.739 472.656 403.291L447.392 365.395ZM133 253.963C134.424 255.107 136.184 255.723 138 255.723H161.768L161.92 271.723H124.8L96.12 248.779L104.224 230.947L133 253.963ZM158.808 115.027C168.256 109.995 179.84 112.907 185.784 121.811C189.064 126.739 190.08 132.611 188.632 138.347C187.192 144.083 183.52 148.779 178.296 151.563L168.896 156.571C168.488 154.523 167.928 152.531 167.304 150.563C167.168 150.147 167.008 149.739 166.864 149.331C166.072 147.051 165.152 144.827 164.088 142.683C163.952 142.419 163.848 142.139 163.712 141.883C162.536 139.627 161.184 137.475 159.72 135.403C159.408 134.963 159.096 134.531 158.776 134.107C157.256 132.083 155.624 130.147 153.84 128.339C153.6 128.099 153.344 127.883 153.104 127.651C151.392 125.987 149.568 124.435 147.648 122.995C147.32 122.747 147.016 122.491 146.68 122.251C146.48 122.107 146.304 121.947 146.104 121.803L158.808 115.027ZM129.296 130.771C144.176 136.899 153.96 151.355 153.968 168.067C153.776 189.955 135.936 207.723 114 207.723C110.296 207.723 106.776 207.051 103.368 206.107C101.288 205.531 99.256 204.851 97.32 203.963C96.472 203.571 95.68 203.075 94.864 202.627C93.272 201.755 91.712 200.811 90.24 199.715C80.44 192.419 74 180.851 74 167.723C74 165.099 74.272 162.459 74.816 159.827L125.768 132.651L129.296 130.771ZM106 111.723C112.112 111.723 118.056 113.115 123.448 115.747L101.408 127.499L66.384 146.179C69.088 126.739 85.824 111.723 106 111.723ZM42 287.723H24.2C21.6 287.723 19.232 286.515 17.704 284.395C16.184 282.283 15.784 279.659 16.608 277.195L37.496 214.523C38.584 211.243 41.696 209.051 45.096 209.051C45.384 209.051 45.68 209.067 45.968 209.099L81.104 213.003C81.304 213.147 81.52 213.259 81.72 213.403C82.928 214.259 84.184 215.051 85.456 215.819C85.872 216.067 86.272 216.331 86.688 216.571C88.408 217.531 90.168 218.427 91.984 219.211L60.848 287.723H42ZM81.696 442.843L65.04 447.147L58.952 343.691L82.656 353.851L88.48 441.091L81.696 442.843ZM104.24 437.019L99.896 371.899L131.56 429.955L104.24 437.019ZM147.536 425.827L105.032 347.899C104.176 346.323 102.808 345.083 101.16 344.379L76.624 333.867L53.36 323.891C53.352 323.891 53.352 323.891 53.344 323.883L50 322.451V303.723H66C69.136 303.723 71.984 301.891 73.28 299.035L89.288 263.811L90 264.371V303.723C90 306.243 91.184 308.611 93.2 310.123L123.792 333.067L170.536 419.875L147.536 425.827ZM186.48 415.747L137.04 323.931C136.488 322.915 135.72 322.019 134.8 321.323L106 299.723V277.163L117 285.963C118.424 287.107 120.184 287.723 122 287.723H164.216L204.944 410.971L186.48 415.747ZM349.736 463.723L355.736 415.723H373.608L379.608 463.723H349.736ZM380.664 399.723H348.664H276.032L323.216 332.307C324.928 329.867 325.136 326.675 323.76 324.027C322.384 321.387 319.656 319.723 316.664 319.723H291.616L331.32 260.163C332.96 257.707 333.112 254.555 331.72 251.955C330.328 249.347 327.616 247.723 324.664 247.723H306.552L369.832 194.331L429.152 247.723H412.664C409.752 247.723 407.072 249.307 405.664 251.859C404.256 254.411 404.344 257.523 405.896 259.987L443.504 319.723H412.664C409.712 319.723 407 321.347 405.608 323.947C404.216 326.547 404.368 329.707 406.008 332.155L451.048 399.723H380.664Z" fill="#003f48"/>
</svg>
