<svg width="472" height="482" viewBox="0 0 472 482" fill="none" xmlns="http://www.w3.org/2000/svg">
<path d="M328 112V216C328 250.112 308.448 279.688 280 294.288V64C280 59.584 276.424 56 272 56H200V32C200 27.584 196.424 24 192 24H144V0H128V24H80C75.576 24 72 27.584 72 32V56H8C3.576 56 0 59.584 0 64V352C0 356.416 3.576 360 8 360H40V384C40 388.416 43.576 392 48 392H77.76L56.24 478.056L71.752 481.936L94.24 392H136V480H152V392H193.76L216.248 481.944L231.76 478.064L210.24 392H240C244.424 392 248 388.416 248 384V360H272C276.424 360 280 356.416 280 352V311.976C317.544 296.272 344 259.176 344 216V112C344 63.48 383.48 24 432 24V8C374.656 8 328 54.656 328 112ZM88 40H184V56H88V40ZM232 376H56V360H232V376ZM264 300.592C256.36 302.76 248.328 304 240 304H144V320H240C248.272 320 256.28 318.928 264 317.096V344H240H48H16V72H80H192H264V300.592Z" fill="#003f48"/>
<path d="M456 207.712V160.304C464.616 153.784 472 141.856 472 120C472 86.7041 439.688 44.8481 438.312 43.0801C435.28 39.1921 428.72 39.1921 425.688 43.0801C424.312 44.8481 392 86.7041 392 120C392 141.856 399.384 153.784 408 160.304V207.712L400.032 303.336C400 303.672 399.992 304.008 400.008 304.344L407.208 472.344C407.392 476.624 410.92 480 415.2 480H448.8C453.08 480 456.616 476.624 456.792 472.344L463.992 304.344C464.008 304.008 464 303.672 463.968 303.336L456 207.712ZM441.136 464H422.872L416.024 304.16L423.36 216H440.64L447.984 304.16L441.136 464ZM424 200V167.312C424.256 167.36 424.536 167.336 424.792 167.376C427.712 167.88 430.232 168 432 168C433.768 168 436.288 167.88 439.208 167.384C439.464 167.336 439.744 167.36 440 167.312V200H424ZM433.392 151.832C432.448 151.88 431.552 151.88 430.608 151.832C425.208 150.848 410.296 144.736 408.24 124.736C408.136 123.184 408 121.68 408 120C408 100.28 423.12 74.9521 432 61.7761C440.88 74.9521 456 100.272 456 120C456 121.68 455.864 123.184 455.76 124.736C453.704 144.736 438.792 150.856 433.392 151.832Z" fill="#003f48"/>
<path d="M215.392 180.936C214.16 177.952 211.232 176 208 176H121.608L204.552 118.576C207.424 116.584 208.68 112.952 207.632 109.608C206.592 106.272 203.504 104 200 104H96V120H174.392L91.448 177.424C88.576 179.416 87.32 183.048 88.368 186.392C89.408 189.728 92.496 192 96 192H188.688L138.344 242.344C136.84 243.84 136 245.88 136 248V288H152V251.312L213.656 189.656C215.944 187.368 216.632 183.928 215.392 180.936Z" fill="#003f48"/>
</svg>
