<svg width="480" height="373" viewBox="0 0 480 373" fill="none" xmlns="http://www.w3.org/2000/svg">
<path d="M474.888 148.806L399.872 119.702L429.648 89.926L457.648 61.926C471.8 47.774 471.8 24.758 457.648 10.614C443.504 -3.538 420.48 -3.538 406.336 10.614L378.336 38.614L329.688 87.262L291.432 69.046C288.392 67.582 284.728 68.222 282.336 70.614L196.688 156.262H112H83.704C73.208 156.262 64.008 162.982 60.832 172.99L9.872 333.246C3.808 339.07 0 347.214 0 356.262V364.262C0 368.678 3.576 372.262 8 372.262H56H424C426.288 372.262 428.472 371.278 429.984 369.574C431.496 367.87 432.216 365.582 431.944 363.31L421.496 276.262H472C476.424 276.262 480 272.678 480 268.262V156.262C480 152.958 477.968 149.998 474.888 148.806ZM417.656 21.918C425.56 14.014 438.44 14.014 446.344 21.918C454.248 29.83 454.248 42.694 446.344 50.606L424 72.95L395.312 44.262L417.656 21.918ZM384 55.574L412.688 84.262L379.888 117.062L330.344 166.606L284.688 212.262H256C238.352 212.262 224 226.614 224 244.262C224 245.766 224.168 247.302 224.416 248.862C224.544 249.734 224.712 250.582 224.912 251.438C224.944 251.582 224.96 251.726 224.992 251.87C225.112 252.366 225.272 252.878 225.512 253.622C226.816 257.854 228.88 261.79 231.8 265.134L216 280.95L187.312 252.262L221.656 217.918L384 55.574ZM333.808 185.766L347.056 212.262H307.312L333.808 185.766ZM201.984 289.566L171.672 302.558L180.336 267.91L201.984 289.566ZM185.584 193.998C185.608 193.822 185.6 193.63 185.64 193.454C185.8 192.638 186.056 191.838 186.352 191.046C186.392 190.942 186.408 190.838 186.448 190.734C186.752 189.982 187.152 189.262 187.592 188.558C187.664 188.438 187.712 188.302 187.792 188.182C188.328 187.374 188.944 186.614 189.656 185.902L289.664 85.918L317.688 99.262L210.344 206.606C204.64 212.31 195.36 212.31 189.656 206.606C188.944 205.894 188.328 205.134 187.792 204.326C187.712 204.206 187.664 204.07 187.592 203.95C187.16 203.246 186.752 202.526 186.448 201.774C186.408 201.67 186.392 201.566 186.352 201.462C186.056 200.678 185.8 199.878 185.64 199.054C185.608 198.878 185.616 198.686 185.584 198.51C185.352 197.014 185.352 195.494 185.584 193.998ZM16 356.262C16 351.358 18.264 347.014 21.752 344.078C21.8 344.046 21.848 344.03 21.896 343.998C23.328 342.822 25.456 341.486 28.176 340.782C28.304 340.75 28.424 340.694 28.56 340.662C29.112 340.534 29.736 340.502 30.328 340.438C30.816 340.39 31.288 340.294 31.784 340.294C35.608 340.43 39.4 341.822 42.432 344.782C45.592 347.862 47.464 351.99 47.84 356.262H16ZM55.848 335.134C51.224 329.918 45 326.19 37.872 324.854C37.448 324.766 37 324.79 36.568 324.726C35.064 324.502 33.56 324.262 32 324.262C31.992 324.262 31.984 324.262 31.984 324.262C31.984 324.262 31.968 324.262 31.96 324.262C31.72 324.262 31.48 324.262 31.24 324.27C30.648 324.278 30.072 324.31 29.48 324.358L76.072 177.83C77.144 174.502 80.2 172.262 83.704 172.262H101.456L55.848 335.134ZM66.544 356.262L118.064 172.262H180.68L178.344 174.606C166.4 186.55 166.4 205.974 178.344 217.918C180.056 219.638 181.96 221.038 183.944 222.254C184.56 222.63 185.2 222.918 185.832 223.246C187.264 223.998 188.72 224.646 190.232 225.15C190.608 225.278 190.944 225.51 191.32 225.622L170.344 246.598C170.336 246.606 170.336 246.622 170.328 246.63C169.672 247.294 169.176 248.094 168.784 248.95C168.68 249.182 168.592 249.406 168.512 249.638C168.432 249.87 168.304 250.07 168.248 250.31L152.248 314.31C151.504 317.262 152.504 320.374 154.816 322.342C156.288 323.606 158.136 324.262 160 324.262C161.064 324.262 162.144 324.054 163.152 323.614L219.056 299.654C219.064 299.654 219.072 299.646 219.072 299.646L219.152 299.614C220.008 299.246 220.736 298.702 221.4 298.094C221.48 298.022 221.584 297.998 221.664 297.918L245.24 274.342C245.52 274.446 245.824 274.478 246.104 274.574C247.232 274.95 248.376 275.254 249.528 275.502C250.032 275.606 250.52 275.734 251.024 275.822C252.672 276.086 254.328 276.262 256 276.262H405.384L414.984 356.262H66.544ZM464 260.262H412.48H256C253.12 260.262 250.344 259.454 247.736 257.87C245.568 256.55 243.688 254.646 241.952 251.71C241.488 250.854 241.12 249.942 240.84 249.038C240.824 248.998 240.536 248.094 240.52 248.046C240.168 246.63 240 245.398 240 244.262C240 235.438 247.176 228.262 256 228.262H288H360C362.776 228.262 365.344 226.822 366.808 224.47C368.272 222.11 368.4 219.166 367.16 216.686L345.736 173.846L387.52 132.062L464 161.742V260.262Z" fill="#003f48"/>
<path d="M136.271 178.146L96.2778 322.143L111.693 326.424L151.686 182.427L136.271 178.146Z" fill="#003f48"/>
</svg>
