<svg width="488" height="485" viewBox="0 0 488 485" fill="none" xmlns="http://www.w3.org/2000/svg">
<path d="M355.584 80.0039C320.296 80.0039 291.584 108.716 291.584 144.004C291.584 179.292 320.296 208.004 355.584 208.004C390.872 208.004 419.584 179.292 419.584 144.004C419.584 108.716 390.872 80.0039 355.584 80.0039ZM355.584 192.004C329.112 192.004 307.584 170.476 307.584 144.004C307.584 117.532 329.112 96.0039 355.584 96.0039C382.056 96.0039 403.584 117.532 403.584 144.004C403.584 170.476 382.056 192.004 355.584 192.004Z" fill="#003f48"/>
<path d="M453.472 264.002C442.272 258.394 428.896 258.41 417.696 264.002L382.32 281.69C380.912 282.394 379.424 282.866 377.928 283.274C377.696 282.962 377.52 282.626 377.24 282.346L230.896 136.002L313.24 53.658C316.368 50.53 316.368 45.474 313.24 42.346L273.24 2.346C270.112 -0.782 265.056 -0.782 261.928 2.346L125.928 138.346C122.8 141.474 122.8 146.53 125.928 149.658L192.272 216.002L126.848 281.426L126.32 281.69C119.592 285.05 111.568 285.05 104.848 281.69L69.472 264.002C58.272 258.394 44.896 258.41 33.688 264.002L0 280.842L7.16 295.154L40.848 278.314C47.576 274.954 55.6 274.954 62.32 278.314L97.696 296.002C108.896 301.61 122.272 301.594 133.48 296.002L135.168 295.162L168.856 278.322C175.584 274.962 183.608 274.962 190.328 278.322L224.016 295.162L225.696 296.002C236.896 301.61 250.272 301.594 261.48 296.002L263.168 295.162L296.856 278.322C303.584 274.962 311.608 274.962 318.328 278.322L352.016 295.162L353.696 296.002C359.296 298.81 365.44 300.202 371.584 300.202C377.728 300.202 383.872 298.802 389.472 296.002L424.848 278.314C431.576 274.954 439.6 274.954 446.32 278.314L480.008 295.154L487.168 280.842L453.472 264.002ZM325.472 264.002C314.272 258.394 300.896 258.41 289.688 264.002L256 280.842L254.312 281.682C247.584 285.042 239.56 285.042 232.84 281.682L231.152 280.842L197.472 264.002C195.568 263.05 193.584 262.314 191.576 261.69C191.088 261.538 190.6 261.394 190.112 261.258C188.112 260.714 186.096 260.282 184.048 260.058C183.832 260.034 183.624 260.042 183.408 260.018C181.536 259.842 179.664 259.818 177.792 259.906C177.248 259.93 176.712 259.954 176.168 260.002C174.144 260.178 172.136 260.466 170.16 260.938C170.088 260.954 170.008 260.954 169.928 260.978L209.24 221.666C212.368 218.538 212.368 213.482 209.24 210.354L142.896 144.002L267.584 19.314L296.272 48.002L213.928 130.346C210.8 133.474 210.8 138.53 213.928 141.658L347.072 274.802L325.472 264.002Z" fill="#003f48"/>
<path d="M74.384 465.148C70.768 462.972 65.824 460.004 56.944 460.004C48.056 460.004 43.104 462.972 39.488 465.148C36.512 466.924 34.72 468.004 30.264 468.004C25.808 468.004 24.016 466.924 21.04 465.148C17.416 462.972 12.472 460.004 3.58398 460.004V476.004C8.03998 476.004 9.83198 477.084 12.808 478.86C16.424 481.036 21.376 484.004 30.264 484.004C39.144 484.004 44.096 481.036 47.72 478.86C50.696 477.084 52.488 476.004 56.944 476.004C61.384 476.004 63.176 477.084 66.136 478.86C69.752 481.036 74.704 484.004 83.584 484.004V468.004C79.144 468.004 77.352 466.924 74.384 465.148Z" fill="#003f48"/>
<path d="M274.384 465.148C270.776 462.98 265.824 460.004 256.952 460.004C248.064 460.004 243.112 462.972 239.496 465.148C236.52 466.932 234.72 468.004 230.272 468.004C225.824 468.004 224.024 466.924 221.048 465.148C217.416 462.972 212.472 460.004 203.584 460.004V476.004C208.04 476.004 209.832 477.084 212.808 478.86C216.424 481.028 221.376 484.004 230.264 484.004C239.144 484.004 244.096 481.036 247.72 478.86C250.696 477.076 252.496 476.004 256.952 476.004C261.392 476.004 263.184 477.084 266.144 478.86C269.752 481.036 274.704 484.004 283.584 484.004V468.004C279.144 468.004 277.352 466.924 274.384 465.148Z" fill="#003f48"/>
<path d="M466.384 465.148C462.776 462.98 457.824 460.004 448.952 460.004C440.064 460.004 435.112 462.972 431.496 465.148C428.52 466.932 426.72 468.004 422.272 468.004C417.824 468.004 416.024 466.924 413.048 465.148C409.416 462.972 404.472 460.004 395.584 460.004V476.004C400.04 476.004 401.832 477.084 404.808 478.86C408.424 481.028 413.376 484.004 422.264 484.004C431.144 484.004 436.096 481.036 439.72 478.86C442.696 477.076 444.496 476.004 448.952 476.004C453.392 476.004 455.184 477.084 458.144 478.86C461.752 481.036 466.704 484.004 475.584 484.004V468.004C471.144 468.004 469.352 466.924 466.384 465.148Z" fill="#003f48"/>
<path d="M170.384 401.148C166.776 398.98 161.824 396.004 152.952 396.004C144.064 396.004 139.112 398.972 135.496 401.148C132.52 402.932 130.72 404.004 126.272 404.004C121.824 404.004 120.024 402.924 117.048 401.148C113.416 398.972 108.472 396.004 99.584 396.004V412.004C104.04 412.004 105.832 413.084 108.808 414.86C112.424 417.028 117.376 420.004 126.264 420.004C135.144 420.004 140.096 417.036 143.72 414.86C146.696 413.076 148.496 412.004 152.952 412.004C157.392 412.004 159.184 413.084 162.144 414.86C165.752 417.036 170.704 420.004 179.584 420.004V404.004C175.144 404.004 173.352 402.924 170.384 401.148Z" fill="#003f48"/>
<path d="M370.384 401.148C366.776 398.98 361.824 396.004 352.952 396.004C344.064 396.004 339.112 398.972 335.496 401.148C332.52 402.932 330.72 404.004 326.272 404.004C321.824 404.004 320.024 402.924 317.048 401.148C313.416 398.972 308.472 396.004 299.584 396.004V412.004C304.04 412.004 305.832 413.084 308.808 414.86C312.424 417.028 317.376 420.004 326.264 420.004C335.144 420.004 340.096 417.036 343.72 414.86C346.696 413.076 348.496 412.004 352.952 412.004C357.392 412.004 359.184 413.084 362.144 414.86C365.752 417.036 370.704 420.004 379.584 420.004V404.004C375.144 404.004 373.352 402.924 370.384 401.148Z" fill="#003f48"/>
<path d="M453.48 332.219C442.272 326.627 428.904 326.627 417.696 332.219L382.328 349.915C375.6 353.275 367.576 353.275 360.856 349.915L325.48 332.219C314.28 326.627 300.912 326.627 289.704 332.219L254.336 349.915C247.608 353.275 239.584 353.275 232.864 349.915L197.488 332.219C186.288 326.627 172.92 326.627 161.712 332.219L126.344 349.915C119.616 353.275 111.592 353.275 104.872 349.915L69.4962 332.219C58.2962 326.627 44.9282 326.627 33.7202 332.219L0.0322266 349.067L7.19223 363.379L40.8722 346.531C47.6002 343.171 55.6242 343.171 62.3442 346.531L97.7202 364.227C108.92 369.819 122.288 369.819 133.496 364.227L168.864 346.531C175.592 343.171 183.616 343.171 190.336 346.531L225.712 364.227C236.912 369.819 250.28 369.819 261.488 364.227L296.856 346.531C303.584 343.171 311.608 343.171 318.328 346.531L353.704 364.227C359.304 367.027 365.448 368.419 371.592 368.419C377.736 368.419 383.88 367.019 389.48 364.227L424.848 346.531C431.576 343.171 439.6 343.171 446.32 346.531L480.008 363.379L487.168 349.067L453.48 332.219Z" fill="#003f48"/>
</svg>
