<svg width="481" height="472" viewBox="0 0 481 472" fill="none" xmlns="http://www.w3.org/2000/svg">
<path d="M472 424H423.2L411.352 311.456L424.464 331.12L427.712 347.384C429.28 355.224 434.208 361.896 441.24 365.712C445.224 367.872 449.6 368.96 454 368.96C457.368 368.96 460.752 368.32 463.976 367.032C470.92 364.256 476.424 358.656 479.088 351.664C481.744 344.672 481.352 336.832 478.008 330.136L471.16 316.432C471.136 316.376 471.088 316.344 471.056 316.296C471.04 316.256 471.04 316.216 471.024 316.176L423.024 228.176C422.136 226.544 420.696 225.272 418.976 224.576L397.296 215.904C413.568 202.688 424 182.544 424 160C424 147.944 420.824 136.072 414.984 125.448L410.856 84.152C423.736 78.696 432 67.984 432 56C432 38.776 414.904 24.688 393.576 24.024C385.072 9.264 369.304 0 352 0C334.696 0 318.928 9.264 310.424 24.024C289.096 24.688 272 38.776 272 56C272 67.984 280.264 78.696 293.144 84.152L289.016 125.448C283.176 136.072 280 147.944 280 160C280 182.544 290.432 202.688 306.712 215.896L285.032 224.568C283.752 225.08 282.624 225.92 281.76 227L254.76 260.752L222.136 234.656L213.424 220.136C211.944 217.664 210.056 215.568 208.016 213.656V192C208.016 181.584 201.304 172.784 192.016 169.472V136H200.016C213.248 136 224.016 125.232 224.016 112V64C224.016 50.768 213.248 40 200.016 40H168.016C154.784 40 144.016 50.768 144.016 64V112C144.016 125.232 154.784 136 168.016 136H176.016V169.472C166.728 172.784 160.016 181.584 160.016 192V224C160.016 224.008 160.016 224.024 160.016 224.032C158.016 228.792 157.12 233.984 157.768 239.296C158.912 248.552 164.152 256.616 172.144 261.416L187.28 270.496L240.464 317.032C249.4 324.84 262.496 325.008 271.632 317.4L293.992 298.76L280.8 424H140.944L150.328 405.232C165.304 399.448 176 384.992 176 368V350.528C185.288 347.216 192 338.416 192 328C192 314.768 181.232 304 168 304H24C10.768 304 0 314.768 0 328C0 338.416 6.712 347.216 16 350.528V368C16 384.992 26.696 399.448 41.672 405.232L51.056 424H8C3.584 424 0 427.584 0 432V464C0 468.416 3.584 472 8 472H472C476.416 472 480 468.416 480 464V432C480 427.584 476.416 424 472 424ZM176 120H168C163.592 120 160 116.408 160 112V64C160 59.592 163.592 56 168 56H176V120ZM463.696 337.28C465.064 340.016 465.224 343.104 464.136 345.968C463.048 348.824 460.88 351.032 458.04 352.168C455.056 353.36 451.704 353.168 448.872 351.632C446.04 350.096 444.04 347.4 443.408 344.24L441.344 333.912L459.72 329.32L463.696 337.28ZM410.36 238.36L452.024 314.744L435.528 318.864L407.4 276.672L395.784 232.528L410.36 238.36ZM392.8 288L407.12 424H296.888L311.2 288H392.8ZM314.384 272L326.176 227.16C326.496 227.28 326.824 227.368 327.144 227.48C328.752 228.072 330.368 228.64 332.024 229.12C332.656 229.304 333.296 229.448 333.928 229.608C335.456 230.008 336.984 230.392 338.544 230.688C339.328 230.84 340.12 230.928 340.904 231.048C342.352 231.272 343.792 231.512 345.264 231.656C346.296 231.752 347.336 231.76 348.368 231.816C349.584 231.88 350.776 232 352 232C353.224 232 354.416 231.88 355.632 231.816C356.672 231.76 357.704 231.752 358.736 231.656C360.208 231.52 361.648 231.28 363.096 231.048C363.88 230.928 364.672 230.84 365.456 230.688C367.016 230.392 368.544 230 370.072 229.608C370.704 229.44 371.344 229.304 371.976 229.12C373.632 228.64 375.256 228.08 376.856 227.48C377.176 227.36 377.504 227.28 377.824 227.16L389.624 272H314.384ZM288 56C288 47.328 298.992 40 312 40C312.464 40 312.904 40.056 313.352 40.104L314.64 40.224C318.008 40.424 321.24 38.544 322.6 35.4C327.656 23.616 339.2 16 352 16C364.8 16 376.344 23.616 381.408 35.4C382.76 38.544 386.04 40.488 389.368 40.224L390.656 40.104C391.096 40.056 391.536 40 392 40C405.008 40 416 47.328 416 56C416 62.392 409.536 68.504 400.28 70.872C396.448 71.848 393.904 75.48 394.296 79.416L399.16 128H304.84L309.696 79.424C310.088 75.488 307.544 71.856 303.712 70.88C294.464 68.504 288 62.392 288 56ZM296 160C296 154.576 296.808 149.184 298.36 144H405.632C407.192 149.184 408 154.576 408 160C408 182.208 394.968 201.384 376.184 210.432C374.368 211.304 372.512 212.08 370.632 212.744C370.544 212.776 370.456 212.808 370.368 212.84C358.448 217.008 345.536 217.008 333.616 212.84C333.528 212.808 333.44 212.776 333.352 212.744C331.472 212.08 329.624 211.304 327.8 210.432C309.032 201.384 296 182.208 296 160ZM192 56H200C204.408 56 208 59.592 208 64V112C208 116.408 204.408 120 200 120H192V56ZM184 184C188.408 184 192 187.592 192 192V205.904C191.952 205.896 191.896 205.896 191.848 205.888C191.656 205.864 191.488 205.776 191.296 205.752C190.856 205.696 190.424 205.776 189.992 205.736C188.6 205.624 187.224 205.608 185.832 205.688C185.136 205.728 184.448 205.728 183.768 205.816C182.12 206.024 180.512 206.408 178.92 206.888C178.24 207.096 177.584 207.312 176.92 207.56C176.616 207.672 176.304 207.744 176.008 207.864V192H176C176 187.592 179.592 184 184 184ZM180.376 247.696C176.624 245.448 174.168 241.672 173.64 237.336C173.288 234.512 173.872 231.752 175.12 229.296C175.152 229.232 175.208 229.192 175.24 229.128C175.584 228.472 175.928 227.912 176.28 227.392C176.712 226.792 177.136 226.184 177.664 225.656C178.784 224.528 180.088 223.672 181.456 223.008C181.568 222.952 181.68 222.88 181.792 222.824C183.16 222.208 184.616 221.824 186.104 221.672C186.216 221.664 186.32 221.648 186.432 221.64C187.88 221.52 189.344 221.648 190.784 221.976C190.936 222.008 191.088 222.04 191.232 222.08C192.728 222.48 194.184 223.096 195.52 224.008C195.56 224.032 195.608 224.048 195.648 224.072C197.256 225.192 198.656 226.624 199.704 228.368L205.936 238.76L190.768 253.928L180.376 247.696ZM261.376 305.104C258.336 307.632 253.96 307.592 250.984 304.984L203.696 263.608L216.584 250.72L250.992 278.248C254.432 281.008 259.472 280.456 262.232 277L292.912 238.648L308.2 232.536L296.896 275.504L261.376 305.104ZM24 336C19.592 336 16 332.408 16 328C16 323.592 19.592 320 24 320H168C172.408 320 176 323.592 176 328C176 332.408 172.408 336 168 336H24ZM32 368V352H160V368C160 381.232 149.232 392 136 392H56C42.768 392 32 381.232 32 368ZM131.056 408L123.056 424H104V408H131.056ZM88 408V424H68.944L60.944 408H88ZM464 456H16V440H64H128H288H416H464V456Z" fill="#003f48"/>
<path d="M376 320H328C323.584 320 320 323.584 320 328V352C320 369.648 334.352 384 352 384C369.648 384 384 369.648 384 352V328C384 323.584 380.416 320 376 320ZM368 352C368 360.824 360.824 368 352 368C343.176 368 336 360.824 336 352V336H368V352Z" fill="#003f48"/>
<path d="M104 240H88V280H104V240Z" fill="#003f48"/>
<path d="M144 256H128V288H144V256Z" fill="#003f48"/>
<path d="M64 256H48V288H64V256Z" fill="#003f48"/>
<path d="M104 208H88V224H104V208Z" fill="#003f48"/>
<path d="M64 224H48V240H64V224Z" fill="#003f48"/>
<path d="M144 224H128V240H144V224Z" fill="#003f48"/>
</svg>
