<svg width="480" height="488" viewBox="0 0 480 488" fill="none" xmlns="http://www.w3.org/2000/svg">
<path d="M400 184H326.248L314.784 138.176C312.12 127.48 302.536 120 291.504 120H188.496C177.464 120 167.88 127.48 165.208 138.176L153.752 184H80C57.944 184 40 201.944 40 224V400C40 422.056 57.944 440 80 440H400C422.056 440 440 422.056 440 400V224C440 201.944 422.056 184 400 184ZM424 400C424 413.232 413.232 424 400 424H80C66.768 424 56 413.232 56 400V224C56 210.768 66.768 200 80 200H160C163.672 200 166.864 197.504 167.76 193.944L180.728 142.064C181.624 138.496 184.816 136 188.496 136H291.512C295.184 136 298.376 138.496 299.272 142.064L312.24 193.944C313.136 197.504 316.328 200 320 200H400C413.232 200 424 210.768 424 224V400Z" fill="#003f48"/>
<path d="M240 216C187.064 216 144 259.064 144 312C144 364.936 187.064 408 240 408C292.936 408 336 364.936 336 312C336 259.064 292.936 216 240 216ZM240 392C195.888 392 160 356.112 160 312C160 267.888 195.888 232 240 232C284.112 232 320 267.888 320 312C320 356.112 284.112 392 240 392Z" fill="#003f48"/>
<path d="M240 248C204.712 248 176 276.712 176 312C176 347.288 204.712 376 240 376C275.288 376 304 347.288 304 312C304 276.712 275.288 248 240 248ZM240 360C213.528 360 192 338.472 192 312C192 285.528 213.528 264 240 264C266.472 264 288 285.528 288 312C288 338.472 266.472 360 240 360Z" fill="#003f48"/>
<path d="M8 80C3.576 80 0 83.584 0 88V168H16V96H88V80H8Z" fill="#003f48"/>
<path d="M464 400V472H392V488H472C476.424 488 480 484.416 480 480V400H464Z" fill="#003f48"/>
<path d="M16 472V400H0V480C0 484.416 3.576 488 8 488H88V472H16Z" fill="#003f48"/>
<path d="M120 216H80C75.576 216 72 219.584 72 224V264C72 268.416 75.576 272 80 272H120C124.424 272 128 268.416 128 264V224C128 219.584 124.424 216 120 216ZM112 256H88V232H112V256Z" fill="#003f48"/>
<path d="M472 48C454.352 48 440 33.648 440 16C440 11.584 436.424 8 432 8C427.576 8 424 11.584 424 16C424 33.648 409.648 48 392 48C387.576 48 384 51.584 384 56C384 60.416 387.576 64 392 64C409.648 64 424 78.352 424 96C424 100.416 427.576 104 432 104C436.424 104 440 100.416 440 96C440 78.352 454.352 64 472 64C476.424 64 480 60.416 480 56C480 51.584 476.424 48 472 48ZM432 69.496C428.448 64.152 423.848 59.552 418.504 56C423.848 52.448 428.448 47.848 432 42.504C435.552 47.848 440.152 52.448 445.496 56C440.152 59.552 435.552 64.152 432 69.496Z" fill="#003f48"/>
<path d="M400 96C382.352 96 368 81.648 368 64C368 59.584 364.424 56 360 56C355.576 56 352 59.584 352 64C352 81.648 337.648 96 320 96C315.576 96 312 99.584 312 104C312 108.416 315.576 112 320 112C337.648 112 352 126.352 352 144C352 148.416 355.576 152 360 152C364.424 152 368 148.416 368 144C368 126.352 382.352 112 400 112C404.424 112 408 108.416 408 104C408 99.584 404.424 96 400 96ZM360 117.496C356.448 112.152 351.848 107.56 346.504 104C351.848 100.448 356.448 95.848 360 90.504C363.552 95.848 368.152 100.44 373.496 104C368.152 107.552 363.56 112.152 360 117.496Z" fill="#003f48"/>
<path d="M328 40C310.352 40 296 25.648 296 8C296 3.584 292.424 0 288 0C283.576 0 280 3.584 280 8C280 25.648 265.648 40 248 40C243.576 40 240 43.584 240 48C240 52.416 243.576 56 248 56C265.648 56 280 70.352 280 88C280 92.416 283.576 96 288 96C292.424 96 296 92.416 296 88C296 70.352 310.352 56 328 56C332.424 56 336 52.416 336 48C336 43.584 332.424 40 328 40ZM288 61.496C284.448 56.152 279.848 51.552 274.504 48C279.848 44.448 284.448 39.848 288 34.504C291.552 39.848 296.152 44.448 301.496 48C296.152 51.552 291.552 56.152 288 61.496Z" fill="#003f48"/>
</svg>
