<svg width="480" height="484" viewBox="0 0 480 484" fill="none" xmlns="http://www.w3.org/2000/svg">
<path d="M443.488 291.718C436.328 265.342 421.856 250.03 409.096 241.358C407.312 240.158 405.128 239.694 403 240.142C400.888 240.574 399.04 241.838 397.872 243.646L384 265.198L370.128 243.654C368.96 241.838 367.112 240.574 365 240.15C362.872 239.702 360.688 240.166 358.904 241.366C344.24 251.326 327.28 270.046 321.816 304.294C307.232 305.854 295.28 317.174 293.432 332.014L288.056 374.99C287.68 378.014 289.048 380.982 291.584 382.662C292.928 383.534 294.464 383.982 296 383.982C297.392 383.982 298.792 383.622 300.04 382.886L327.696 366.718C336.52 389.502 351.392 408.734 364.2 420.302C347.592 427.862 336 444.574 336 463.982V471.982C336 474.638 337.32 477.118 339.512 478.606C341.704 480.094 344.512 480.398 346.968 479.414L384 464.598L421.032 479.414C421.984 479.798 422.992 479.982 424 479.982C425.576 479.982 427.144 479.51 428.488 478.606C430.68 477.118 432 474.638 432 471.982V463.982C432 444.574 420.408 427.862 403.8 420.302C413.28 411.742 423.864 398.998 432.328 383.678L468.856 399.326C469.856 399.774 470.928 399.982 472 399.982C473.536 399.982 475.08 399.534 476.408 398.662C478.648 397.174 480 394.67 480 391.982V343.982C480 320.59 465.136 299.806 443.488 291.718ZM305.944 360.894L309.312 333.998C310.096 327.75 314.448 322.694 320.152 320.798C320.056 323.214 320 325.614 320 327.982C320 335.958 320.552 343.91 321.656 351.718L305.944 360.894ZM415.768 460.07L386.968 448.558C386.016 448.166 385.008 447.982 384 447.982C382.992 447.982 381.984 448.166 381.032 448.55L352.232 460.062C354.168 444.262 367.68 431.982 384 431.982C400.32 431.982 413.832 444.262 415.768 460.07ZM431.4 337.39C431.328 338.006 431.208 338.614 431.12 339.222C431.048 339.734 430.96 340.23 430.88 340.742C430.568 342.774 430.192 344.814 429.728 346.862C429.648 347.214 429.552 347.566 429.472 347.918C429.232 348.902 428.992 349.886 428.728 350.862C428.192 352.822 427.576 354.782 426.912 356.75C426.496 357.974 426.104 359.214 425.648 360.414C425.632 360.462 425.608 360.502 425.592 360.55C424.608 363.126 423.488 365.702 422.272 368.278C421.848 369.174 421.4 370.054 420.952 370.934C420.296 372.238 419.648 373.542 418.96 374.806C418.408 375.822 417.832 376.798 417.256 377.782C416.544 379.014 415.832 380.238 415.088 381.422C414.496 382.366 413.896 383.27 413.296 384.19C412.544 385.334 411.784 386.478 411.016 387.582C410.408 388.454 409.792 389.294 409.176 390.134C408.4 391.198 407.616 392.246 406.84 393.254C406.224 394.046 405.608 394.814 404.992 395.566C404.208 396.534 403.432 397.478 402.656 398.382C402.048 399.094 401.448 399.774 400.856 400.446C400.088 401.31 399.32 402.15 398.576 402.95C398 403.566 397.432 404.158 396.872 404.734C396.128 405.494 395.4 406.23 394.688 406.918C394.16 407.43 393.64 407.934 393.128 408.406C392.44 409.046 391.776 409.646 391.136 410.214C390.656 410.638 390.176 411.054 389.72 411.438C389.12 411.942 388.552 412.39 388 412.822C387.576 413.15 387.16 413.478 386.768 413.758C386.264 414.126 385.808 414.43 385.36 414.718C385.024 414.934 384.672 415.166 384.376 415.342C384.208 415.438 384.096 415.478 383.944 415.558C373.632 409.958 336 372.51 336 327.982C336 323.766 336.28 319.374 336.648 314.974C338.856 291.094 347.232 272.222 361.4 259.654L377.272 284.31C380.208 288.886 387.784 288.886 390.728 284.31L406.6 259.654C420.856 272.294 429.264 291.318 431.4 315.414C431.744 319.606 432 323.83 432 327.982C432 331.094 431.768 334.238 431.4 337.39ZM464 379.846L439.392 369.302C445.112 355.47 448 341.598 448 327.982C448 325.11 447.912 322.246 447.768 319.462C447.712 318.438 447.616 317.462 447.544 316.454C447.448 315.142 447.384 313.766 447.256 312.542C447.256 312.294 447.232 311.95 447.208 311.702C447.2 311.614 447.192 311.534 447.184 311.454C457.496 318.814 464 330.862 464 343.982V379.846Z" fill="#003f48"/>
<path d="M416 295.982H400V311.982H416V295.982Z" fill="#003f48"/>
<path d="M392 160.998V134.51C401.288 131.198 408 122.398 408 111.982V95.9819C408 85.5659 401.288 76.7659 392 73.4539V7.98187C392 4.74987 390.056 1.82187 387.064 0.589871C384.616 -0.426129 381.912 -0.0901287 379.744 1.29387L379.704 1.23787L122.648 164.814C117.056 161.83 110.768 159.982 104 159.982C95.8637 159.982 88.3037 162.454 81.9757 166.646L67.3117 151.982L77.6557 141.638L66.3437 130.326L34.3437 162.326L45.6557 173.638L55.9997 163.294L70.6637 177.958C66.4717 184.286 63.9997 191.846 63.9997 199.982C63.9997 208.91 67.0397 217.07 71.9997 223.734V276.67L13.6557 335.014C4.29574 344.374 4.29574 359.59 13.6557 368.95L23.0317 378.326C27.7117 383.006 33.8477 385.342 39.9997 385.342C46.1517 385.342 52.2877 383.006 56.9677 378.326L117.656 317.638C120.784 314.51 120.784 309.454 117.656 306.326L107.312 295.982L376 27.2939V73.4539C366.712 76.7659 360 85.5659 360 95.9819V111.982C360 122.398 366.712 131.198 376 134.51V167.982C376 172.406 379.576 175.982 384 175.982C392.824 175.982 400 183.158 400 191.982C400 200.806 392.824 207.982 384 207.982C375.176 207.982 368 200.806 368 191.982H352C352 209.63 366.352 223.982 384 223.982C401.648 223.982 416 209.63 416 191.982C416 177.102 405.792 164.55 392 160.998ZM82.4077 189.702L98.3437 205.638L109.656 194.326L93.7197 178.39C96.8477 176.886 100.304 175.982 104 175.982C109.208 175.982 113.992 177.694 117.928 180.518C117.984 180.558 118.024 180.622 118.08 180.662C119.544 181.734 120.824 182.958 121.992 184.27C122.2 184.51 122.4 184.758 122.6 185.006C123.48 186.078 124.232 187.23 124.904 188.422C125.144 188.854 125.4 189.278 125.616 189.726C126.16 190.862 126.576 192.054 126.928 193.27C127.072 193.758 127.264 194.222 127.376 194.718C127.76 196.43 128 198.182 128 199.982C128 213.214 117.232 223.982 104 223.982C102.296 223.982 100.632 223.798 99.0157 223.446C98.7517 223.39 98.5197 223.278 98.2637 223.214C96.8877 222.87 95.5197 222.454 94.2317 221.862C94.1437 221.822 94.0637 221.766 93.9677 221.718C91.0077 220.31 88.3037 218.294 86.0237 215.678C85.9917 215.646 85.9517 215.622 85.9197 215.59C82.2797 211.382 79.9997 205.966 79.9997 199.982C79.9997 196.286 80.9037 192.83 82.4077 189.702ZM45.6557 367.014C42.5277 370.142 37.4717 370.142 34.3437 367.014L24.9677 357.638C21.8477 354.518 21.8477 349.446 24.9677 346.326L79.9997 291.294L100.688 311.982L45.6557 367.014ZM95.9997 284.67L87.9997 276.67V236.59C92.9117 238.75 98.3037 239.982 104 239.982C126.056 239.982 144 222.038 144 199.982C144 197.518 143.712 195.094 143.264 192.702C143.072 191.67 142.76 190.694 142.488 189.686C142.144 188.422 141.792 187.166 141.32 185.942C140.872 184.75 140.344 183.606 139.784 182.47C139.32 181.534 138.832 180.63 138.296 179.742C137.584 178.55 136.856 177.39 136.032 176.278C135.864 176.046 135.736 175.79 135.56 175.558L326.808 53.8619L95.9997 284.67ZM384 119.982C379.584 119.982 376 116.398 376 111.982V95.9819C376 91.5659 379.584 87.9819 384 87.9819C388.416 87.9819 392 91.5659 392 95.9819V111.982C392 116.398 388.416 119.982 384 119.982Z" fill="#003f48"/>
<path d="M464 431.982C464 440.806 456.824 447.982 448 447.982V463.982C465.648 463.982 480 449.63 480 431.982H464Z" fill="#003f48"/>
<path d="M304 431.982H288C288 449.63 302.352 463.982 320 463.982V447.982C311.176 447.982 304 440.806 304 431.982Z" fill="#003f48"/>
<path d="M246.8 465.126C243.192 462.958 238.24 459.982 229.36 459.982C220.48 459.982 215.528 462.95 211.904 465.126C208.936 466.91 207.136 467.982 202.68 467.982C198.224 467.982 196.432 466.902 193.464 465.126C189.84 462.95 184.888 459.982 176 459.982V475.982C180.464 475.982 182.256 477.062 185.224 478.838C188.84 481.006 193.792 483.982 202.68 483.982C211.568 483.982 216.52 481.014 220.144 478.838C223.112 477.054 224.912 475.982 229.36 475.982C233.808 475.982 235.592 477.062 238.56 478.838C242.168 481.006 247.12 483.982 256 483.982V467.982C251.552 467.982 249.768 466.902 246.8 465.126Z" fill="#003f48"/>
<path d="M150.8 417.126C147.192 414.958 142.24 411.982 133.36 411.982C124.48 411.982 119.528 414.95 115.904 417.126C112.936 418.91 111.136 419.982 106.68 419.982C102.224 419.982 100.432 418.902 97.464 417.126C93.84 414.95 88.888 411.982 80 411.982V427.982C84.464 427.982 86.256 429.062 89.224 430.838C92.84 433.006 97.792 435.982 106.68 435.982C115.568 435.982 120.52 433.014 124.144 430.838C127.112 429.054 128.912 427.982 133.36 427.982C137.808 427.982 139.592 429.062 142.56 430.838C146.168 433.006 151.12 435.982 160 435.982V419.982C155.552 419.982 153.768 418.902 150.8 417.126Z" fill="#003f48"/>
<path d="M262.8 369.126C259.192 366.958 254.24 363.982 245.36 363.982C236.48 363.982 231.528 366.95 227.904 369.126C224.936 370.91 223.136 371.982 218.68 371.982C214.224 371.982 212.432 370.902 209.464 369.126C205.84 366.95 200.888 363.982 192 363.982V379.982C196.464 379.982 198.256 381.062 201.224 382.838C204.84 385.006 209.792 387.982 218.68 387.982C227.568 387.982 232.52 385.014 236.144 382.838C239.112 381.054 240.912 379.982 245.36 379.982C249.808 379.982 251.592 381.062 254.56 382.838C258.168 385.006 263.12 387.982 272 387.982V371.982C267.552 371.982 265.768 370.902 262.8 369.126Z" fill="#003f48"/>
<path d="M70.8 465.126C67.192 462.958 62.24 459.982 53.36 459.982C44.48 459.982 39.528 462.95 35.904 465.126C32.936 466.902 31.144 467.982 26.68 467.982C22.224 467.982 20.432 466.902 17.464 465.126C13.84 462.95 8.888 459.982 0 459.982V475.982C4.464 475.982 6.256 477.062 9.224 478.838C12.84 481.014 17.8 483.982 26.68 483.982C35.568 483.982 40.52 481.014 44.144 478.838C47.112 477.062 48.904 475.982 53.36 475.982C57.808 475.982 59.592 477.062 62.56 478.838C66.168 481.006 71.12 483.982 80 483.982V467.982C75.552 467.982 73.768 466.902 70.8 465.126Z" fill="#003f48"/>
</svg>
