<svg viewBox="0 0 554 480" fill="none" xmlns="http://www.w3.org/2000/svg">
<rect x="470.869" y="1.42883" width="3" height="499.033" transform="rotate(45 470.869 1.42883)" fill="#39A958"/>
<rect x="549.425" y="74.8666" width="3" height="506.899" transform="rotate(45 549.425 74.8666)" fill="#39A958"/>
<path d="M285.611 289.506L258.501 262.395L276.294 244.602L278.662 246.969L263.541 262.09L273.507 272.056L286.26 259.302L288.475 261.517L275.722 274.271L288.284 286.833L285.611 289.506ZM279.802 239.567L282.399 236.97L305.767 260.339C306.505 261.077 307.294 261.459 308.134 261.484C308.949 261.484 309.725 261.115 310.464 260.377C310.744 260.097 311.036 259.728 311.342 259.269C311.647 258.811 311.902 258.353 312.106 257.895L314.664 259.537C314.384 260.224 313.951 260.988 313.366 261.828C312.806 262.642 312.271 263.304 311.762 263.813C310.566 265.01 309.293 265.621 307.944 265.646C306.569 265.646 305.271 265.035 304.049 263.813L279.802 239.567ZM326.824 249.057C325.373 250.508 323.782 251.564 322.051 252.226C320.295 252.862 318.5 253.155 316.667 253.104C314.86 253.028 313.091 252.608 311.36 251.844C309.629 251.08 308.076 250.011 306.701 248.637C305.301 247.237 304.219 245.671 303.455 243.94C302.717 242.184 302.31 240.402 302.234 238.594C302.183 236.762 302.475 234.967 303.112 233.21C303.748 231.454 304.779 229.863 306.205 228.437C307.63 227.012 309.221 225.981 310.978 225.345C312.76 224.683 314.554 224.39 316.362 224.466C318.194 224.517 319.976 224.925 321.707 225.688C323.464 226.426 325.042 227.496 326.442 228.896C327.817 230.27 328.886 231.823 329.65 233.554C330.413 235.285 330.82 237.067 330.871 238.9C330.948 240.707 330.655 242.502 329.993 244.284C329.331 246.015 328.275 247.606 326.824 249.057ZM309.374 246.04C310.494 247.16 311.729 248.013 313.078 248.598C314.401 249.159 315.751 249.489 317.125 249.591C318.5 249.642 319.824 249.439 321.096 248.98C322.395 248.497 323.54 247.758 324.533 246.766C325.526 245.773 326.251 244.64 326.709 243.367C327.168 242.044 327.371 240.694 327.32 239.32C327.244 237.92 326.913 236.545 326.328 235.196C325.742 233.847 324.889 232.612 323.769 231.492C322.675 230.398 321.453 229.558 320.104 228.972C318.729 228.361 317.354 228.03 315.98 227.979C314.58 227.903 313.231 228.107 311.932 228.59C310.634 229.023 309.489 229.736 308.496 230.728C307.503 231.721 306.79 232.867 306.357 234.165C305.899 235.438 305.708 236.774 305.785 238.174C305.861 239.574 306.205 240.962 306.816 242.336C307.401 243.686 308.254 244.92 309.374 246.04ZM345.121 190.209L347.679 187.651L359.019 216.098L356.881 218.236L342.448 212.356L348.366 226.751L346.228 228.889L317.781 217.549L320.301 215.028L344.777 224.994L339.469 212.126L327.976 207.43L330.152 205.253L339.24 209.148L335.345 200.06L337.56 197.846L342.257 209.339L355.125 214.647L345.121 190.209Z" fill="#39A958"/>
<path d="M165.478 37.5399H167.012L174.682 55.9999H172.758L170.366 50.2279H162.072L159.706 55.9999H157.756L165.478 37.5399ZM169.95 48.7979L166.232 39.6719L162.462 48.7979H169.95ZM188.353 55.9999H186.585V48.4339C186.585 46.8219 186.342 45.6519 185.857 44.9239C185.389 44.1959 184.661 43.8319 183.673 43.8319C183.153 43.8319 182.633 43.9272 182.113 44.1179C181.593 44.3085 181.107 44.5772 180.657 44.9239C180.223 45.2705 179.833 45.6865 179.487 46.1719C179.14 46.6399 178.889 47.1512 178.733 47.7059V55.9999H176.965V42.4539H178.577V45.5219C179.131 44.5339 179.92 43.7365 180.943 43.1299C181.983 42.5232 183.109 42.2199 184.323 42.2199C185.068 42.2199 185.701 42.3585 186.221 42.6359C186.741 42.9132 187.157 43.3032 187.469 43.8059C187.781 44.3085 188.006 44.9239 188.145 45.6519C188.283 46.3799 188.353 47.1859 188.353 48.0699V55.9999ZM196.621 56.2599C195.564 56.2599 194.532 56.0865 193.527 55.7399C192.522 55.3932 191.655 54.8905 190.927 54.2319L191.733 53.0359C192.496 53.6599 193.267 54.1279 194.047 54.4399C194.844 54.7519 195.694 54.9079 196.595 54.9079C197.687 54.9079 198.554 54.6912 199.195 54.2579C199.854 53.8072 200.183 53.1745 200.183 52.3599C200.183 51.9785 200.096 51.6665 199.923 51.4239C199.75 51.1639 199.49 50.9385 199.143 50.7479C198.814 50.5572 198.389 50.3925 197.869 50.2539C197.366 50.0979 196.777 49.9419 196.101 49.7859C195.321 49.5952 194.645 49.4045 194.073 49.2139C193.501 49.0232 193.024 48.8065 192.643 48.5639C192.279 48.3212 192.002 48.0265 191.811 47.6799C191.638 47.3159 191.551 46.8652 191.551 46.3279C191.551 45.6519 191.681 45.0539 191.941 44.5339C192.218 44.0139 192.582 43.5892 193.033 43.2599C193.501 42.9132 194.038 42.6532 194.645 42.4799C195.269 42.3065 195.928 42.2199 196.621 42.2199C197.661 42.2199 198.606 42.3932 199.455 42.7399C200.304 43.0692 200.989 43.5112 201.509 44.0659L200.651 45.1059C200.148 44.5859 199.533 44.1959 198.805 43.9359C198.094 43.6759 197.349 43.5459 196.569 43.5459C196.101 43.5459 195.668 43.5979 195.269 43.7019C194.87 43.7885 194.515 43.9359 194.203 44.1439C193.908 44.3519 193.674 44.6205 193.501 44.9499C193.328 45.2619 193.241 45.6345 193.241 46.0679C193.241 46.4319 193.302 46.7265 193.423 46.9519C193.544 47.1772 193.744 47.3765 194.021 47.5499C194.298 47.7059 194.645 47.8532 195.061 47.9919C195.494 48.1132 196.014 48.2432 196.621 48.3819C197.488 48.5899 198.25 48.7979 198.909 49.0059C199.568 49.2139 200.114 49.4565 200.547 49.7339C200.998 50.0112 201.336 50.3492 201.561 50.7479C201.786 51.1465 201.899 51.6319 201.899 52.2039C201.899 53.4519 201.422 54.4399 200.469 55.1679C199.516 55.8959 198.233 56.2599 196.621 56.2599ZM204.793 55.9999V42.4539H206.561V55.9999H204.793ZM204.793 39.6199V37.0199H206.561V39.6199H204.793ZM216.305 56.2599C215.317 56.2599 214.407 56.0779 213.575 55.7139C212.76 55.3325 212.05 54.8212 211.443 54.1799C210.836 53.5212 210.36 52.7672 210.013 51.9179C209.684 51.0685 209.519 50.1585 209.519 49.1879C209.519 48.2345 209.684 47.3419 210.013 46.5099C210.36 45.6605 210.828 44.9239 211.417 44.2999C212.024 43.6585 212.743 43.1559 213.575 42.7919C214.407 42.4105 215.308 42.2199 216.279 42.2199C217.267 42.2199 218.168 42.4105 218.983 42.7919C219.815 43.1559 220.526 43.6585 221.115 44.2999C221.704 44.9412 222.164 45.6779 222.493 46.5099C222.822 47.3419 222.987 48.2259 222.987 49.1619C222.987 49.3005 222.987 49.4392 222.987 49.5779C222.987 49.7165 222.978 49.8119 222.961 49.8639H211.365C211.417 50.5919 211.582 51.2679 211.859 51.8919C212.154 52.4985 212.526 53.0272 212.977 53.4779C213.428 53.9285 213.939 54.2839 214.511 54.5439C215.1 54.7865 215.724 54.9079 216.383 54.9079C216.816 54.9079 217.25 54.8472 217.683 54.7259C218.116 54.6045 218.515 54.4399 218.879 54.2319C219.243 54.0239 219.572 53.7725 219.867 53.4779C220.162 53.1659 220.387 52.8279 220.543 52.4639L222.077 52.8799C221.869 53.3825 221.574 53.8419 221.193 54.2579C220.812 54.6565 220.37 55.0119 219.867 55.3239C219.364 55.6185 218.81 55.8439 218.203 55.9999C217.596 56.1732 216.964 56.2599 216.305 56.2599ZM221.297 48.5119C221.245 47.7839 221.072 47.1252 220.777 46.5359C220.5 45.9292 220.136 45.4092 219.685 44.9759C219.252 44.5425 218.74 44.2045 218.151 43.9619C217.579 43.7192 216.964 43.5979 216.305 43.5979C215.646 43.5979 215.022 43.7192 214.433 43.9619C213.844 44.2045 213.324 44.5425 212.873 44.9759C212.44 45.4092 212.084 45.9292 211.807 46.5359C211.547 47.1425 211.391 47.8012 211.339 48.5119H221.297ZM231.279 56.2599C230.343 56.2599 229.476 56.0692 228.679 55.6879C227.881 55.2892 227.197 54.7692 226.625 54.1279C226.053 53.4865 225.602 52.7499 225.273 51.9179C224.961 51.0685 224.805 50.1845 224.805 49.2659C224.805 48.3125 224.961 47.4112 225.273 46.5619C225.585 45.6952 226.009 44.9412 226.547 44.2999C227.101 43.6585 227.751 43.1559 228.497 42.7919C229.259 42.4105 230.091 42.2199 230.993 42.2199C232.137 42.2199 233.151 42.5232 234.035 43.1299C234.919 43.7192 235.612 44.4385 236.115 45.2879V37.0199H237.883V53.7119C237.883 54.1972 238.091 54.4399 238.507 54.4399V55.9999C238.247 56.0519 238.039 56.0779 237.883 56.0779C237.467 56.0779 237.103 55.9479 236.791 55.6879C236.479 55.4105 236.323 55.0812 236.323 54.6999V53.3739C235.785 54.2579 235.057 54.9599 234.139 55.4799C233.22 55.9999 232.267 56.2599 231.279 56.2599ZM231.669 54.6999C232.102 54.6999 232.561 54.6132 233.047 54.4399C233.549 54.2665 234.017 54.0325 234.451 53.7379C234.884 53.4259 235.248 53.0705 235.543 52.6719C235.855 52.2559 236.045 51.8139 236.115 51.3459V47.1599C235.941 46.6919 235.69 46.2585 235.361 45.8599C235.031 45.4439 234.65 45.0799 234.217 44.7679C233.801 44.4559 233.35 44.2132 232.865 44.0399C232.379 43.8665 231.903 43.7799 231.435 43.7799C230.707 43.7799 230.048 43.9359 229.459 44.2479C228.869 44.5599 228.358 44.9759 227.925 45.4959C227.509 45.9985 227.188 46.5792 226.963 47.2379C226.737 47.8965 226.625 48.5725 226.625 49.2659C226.625 49.9939 226.755 50.6872 227.015 51.3459C227.275 52.0045 227.63 52.5852 228.081 53.0879C228.531 53.5732 229.06 53.9632 229.667 54.2579C230.291 54.5525 230.958 54.6999 231.669 54.6999ZM245.294 56.2599C244.653 56.2599 244.055 56.1559 243.5 55.9479C242.963 55.7225 242.486 55.4192 242.07 55.0379C241.672 54.6565 241.36 54.2145 241.134 53.7119C240.909 53.1919 240.796 52.6372 240.796 52.0479C240.796 51.4585 240.935 50.9125 241.212 50.4099C241.49 49.9072 241.88 49.4739 242.382 49.1099C242.885 48.7459 243.483 48.4685 244.176 48.2779C244.87 48.0699 245.632 47.9659 246.464 47.9659C247.158 47.9659 247.86 48.0265 248.57 48.1479C249.281 48.2692 249.914 48.4425 250.468 48.6679V47.4459C250.468 46.2499 250.13 45.3052 249.454 44.6119C248.778 43.9012 247.842 43.5459 246.646 43.5459C245.953 43.5459 245.242 43.6845 244.514 43.9619C243.786 44.2392 243.05 44.6379 242.304 45.1579L241.68 43.9879C243.431 42.8092 245.13 42.2199 246.776 42.2199C248.475 42.2199 249.81 42.6965 250.78 43.6499C251.751 44.6032 252.236 45.9205 252.236 47.6019V53.7119C252.236 54.1972 252.453 54.4399 252.886 54.4399V55.9999C252.592 56.0519 252.366 56.0779 252.21 56.0779C251.76 56.0779 251.404 55.9652 251.144 55.7399C250.902 55.5145 250.772 55.2025 250.754 54.8039L250.702 53.7379C250.078 54.5525 249.29 55.1765 248.336 55.6099C247.4 56.0432 246.386 56.2599 245.294 56.2599ZM245.71 54.9079C246.629 54.9079 247.47 54.7345 248.232 54.3879C249.012 54.0412 249.602 53.5819 250 53.0099C250.156 52.8539 250.269 52.6892 250.338 52.5159C250.425 52.3252 250.468 52.1519 250.468 51.9959V49.7859C249.879 49.5605 249.264 49.3872 248.622 49.2659C247.998 49.1445 247.357 49.0839 246.698 49.0839C245.45 49.0839 244.436 49.3439 243.656 49.8639C242.876 50.3839 242.486 51.0685 242.486 51.9179C242.486 52.3339 242.564 52.7239 242.72 53.0879C242.894 53.4519 243.119 53.7725 243.396 54.0499C243.691 54.3099 244.038 54.5179 244.436 54.6739C244.835 54.8299 245.26 54.9079 245.71 54.9079ZM261.62 56.2599C260.684 56.2599 259.818 56.0692 259.02 55.6879C258.223 55.2892 257.538 54.7692 256.966 54.1279C256.394 53.4865 255.944 52.7499 255.614 51.9179C255.302 51.0685 255.146 50.1845 255.146 49.2659C255.146 48.3125 255.302 47.4112 255.614 46.5619C255.926 45.6952 256.351 44.9412 256.888 44.2999C257.443 43.6585 258.093 43.1559 258.838 42.7919C259.601 42.4105 260.433 42.2199 261.334 42.2199C262.478 42.2199 263.492 42.5232 264.376 43.1299C265.26 43.7192 265.954 44.4385 266.456 45.2879V37.0199H268.224V53.7119C268.224 54.1972 268.432 54.4399 268.848 54.4399V55.9999C268.588 56.0519 268.38 56.0779 268.224 56.0779C267.808 56.0779 267.444 55.9479 267.132 55.6879C266.82 55.4105 266.664 55.0812 266.664 54.6999V53.3739C266.127 54.2579 265.399 54.9599 264.48 55.4799C263.562 55.9999 262.608 56.2599 261.62 56.2599ZM262.01 54.6999C262.444 54.6999 262.903 54.6132 263.388 54.4399C263.891 54.2665 264.359 54.0325 264.792 53.7379C265.226 53.4259 265.59 53.0705 265.884 52.6719C266.196 52.2559 266.387 51.8139 266.456 51.3459V47.1599C266.283 46.6919 266.032 46.2585 265.702 45.8599C265.373 45.4439 264.992 45.0799 264.558 44.7679C264.142 44.4559 263.692 44.2132 263.206 44.0399C262.721 43.8665 262.244 43.7799 261.776 43.7799C261.048 43.7799 260.39 43.9359 259.8 44.2479C259.211 44.5599 258.7 44.9759 258.266 45.4959C257.85 45.9985 257.53 46.5792 257.304 47.2379C257.079 47.8965 256.966 48.5725 256.966 49.2659C256.966 49.9939 257.096 50.6872 257.356 51.3459C257.616 52.0045 257.972 52.5852 258.422 53.0879C258.873 53.5732 259.402 53.9632 260.008 54.2579C260.632 54.5525 261.3 54.6999 262.01 54.6999ZM278.08 56.2599C277.092 56.2599 276.182 56.0779 275.35 55.7139C274.536 55.3325 273.825 54.8212 273.218 54.1799C272.612 53.5212 272.135 52.7672 271.788 51.9179C271.459 51.0685 271.294 50.1585 271.294 49.1879C271.294 48.2345 271.459 47.3419 271.788 46.5099C272.135 45.6605 272.603 44.9239 273.192 44.2999C273.799 43.6585 274.518 43.1559 275.35 42.7919C276.182 42.4105 277.084 42.2199 278.054 42.2199C279.042 42.2199 279.944 42.4105 280.758 42.7919C281.59 43.1559 282.301 43.6585 282.89 44.2999C283.48 44.9412 283.939 45.6779 284.268 46.5099C284.598 47.3419 284.762 48.2259 284.762 49.1619C284.762 49.3005 284.762 49.4392 284.762 49.5779C284.762 49.7165 284.754 49.8119 284.736 49.8639H273.14C273.192 50.5919 273.357 51.2679 273.634 51.8919C273.929 52.4985 274.302 53.0272 274.752 53.4779C275.203 53.9285 275.714 54.2839 276.286 54.5439C276.876 54.7865 277.5 54.9079 278.158 54.9079C278.592 54.9079 279.025 54.8472 279.458 54.7259C279.892 54.6045 280.29 54.4399 280.654 54.2319C281.018 54.0239 281.348 53.7725 281.642 53.4779C281.937 53.1659 282.162 52.8279 282.318 52.4639L283.852 52.8799C283.644 53.3825 283.35 53.8419 282.968 54.2579C282.587 54.6565 282.145 55.0119 281.642 55.3239C281.14 55.6185 280.585 55.8439 279.978 55.9999C279.372 56.1732 278.739 56.2599 278.08 56.2599ZM283.072 48.5119C283.02 47.7839 282.847 47.1252 282.552 46.5359C282.275 45.9292 281.911 45.4092 281.46 44.9759C281.027 44.5425 280.516 44.2045 279.926 43.9619C279.354 43.7192 278.739 43.5979 278.08 43.5979C277.422 43.5979 276.798 43.7192 276.208 43.9619C275.619 44.2045 275.099 44.5425 274.648 44.9759C274.215 45.4092 273.86 45.9292 273.582 46.5359C273.322 47.1425 273.166 47.8012 273.114 48.5119H283.072Z" fill="#FF5757"/>
<path d="M438.682 376.152H432.104V393H430.284V376.152H423.706V374.54H438.682V376.152ZM444.04 376.88L442.87 376.438L444.404 374.02H446.276L444.04 376.88ZM443.962 393.26C442.974 393.26 442.064 393.078 441.232 392.714C440.417 392.333 439.707 391.821 439.1 391.18C438.493 390.521 438.017 389.767 437.67 388.918C437.341 388.069 437.176 387.159 437.176 386.188C437.176 385.235 437.341 384.342 437.67 383.51C438.017 382.661 438.485 381.924 439.074 381.3C439.681 380.659 440.4 380.156 441.232 379.792C442.064 379.411 442.965 379.22 443.936 379.22C444.924 379.22 445.825 379.411 446.64 379.792C447.472 380.156 448.183 380.659 448.772 381.3C449.361 381.941 449.821 382.678 450.15 383.51C450.479 384.342 450.644 385.226 450.644 386.162C450.644 386.301 450.644 386.439 450.644 386.578C450.644 386.717 450.635 386.812 450.618 386.864H439.022C439.074 387.592 439.239 388.268 439.516 388.892C439.811 389.499 440.183 390.027 440.634 390.478C441.085 390.929 441.596 391.284 442.168 391.544C442.757 391.787 443.381 391.908 444.04 391.908C444.473 391.908 444.907 391.847 445.34 391.726C445.773 391.605 446.172 391.44 446.536 391.232C446.9 391.024 447.229 390.773 447.524 390.478C447.819 390.166 448.044 389.828 448.2 389.464L449.734 389.88C449.526 390.383 449.231 390.842 448.85 391.258C448.469 391.657 448.027 392.012 447.524 392.324C447.021 392.619 446.467 392.844 445.86 393C445.253 393.173 444.621 393.26 443.962 393.26ZM448.954 385.512C448.902 384.784 448.729 384.125 448.434 383.536C448.157 382.929 447.793 382.409 447.342 381.976C446.909 381.543 446.397 381.205 445.808 380.962C445.236 380.719 444.621 380.598 443.962 380.598C443.303 380.598 442.679 380.719 442.09 380.962C441.501 381.205 440.981 381.543 440.53 381.976C440.097 382.409 439.741 382.929 439.464 383.536C439.204 384.143 439.048 384.801 438.996 385.512H448.954ZM458.936 393.26C458 393.26 457.133 393.069 456.336 392.688C455.539 392.289 454.854 391.769 454.282 391.128C453.71 390.487 453.259 389.75 452.93 388.918C452.618 388.069 452.462 387.185 452.462 386.266C452.462 385.313 452.618 384.411 452.93 383.562C453.242 382.695 453.667 381.941 454.204 381.3C454.759 380.659 455.409 380.156 456.154 379.792C456.917 379.411 457.749 379.22 458.65 379.22C459.794 379.22 460.808 379.523 461.692 380.13C462.576 380.719 463.269 381.439 463.772 382.288V374.02H465.54V390.712C465.54 391.197 465.748 391.44 466.164 391.44V393C465.904 393.052 465.696 393.078 465.54 393.078C465.124 393.078 464.76 392.948 464.448 392.688C464.136 392.411 463.98 392.081 463.98 391.7V390.374C463.443 391.258 462.715 391.96 461.796 392.48C460.877 393 459.924 393.26 458.936 393.26ZM459.326 391.7C459.759 391.7 460.219 391.613 460.704 391.44C461.207 391.267 461.675 391.033 462.108 390.738C462.541 390.426 462.905 390.071 463.2 389.672C463.512 389.256 463.703 388.814 463.772 388.346V384.16C463.599 383.692 463.347 383.259 463.018 382.86C462.689 382.444 462.307 382.08 461.874 381.768C461.458 381.456 461.007 381.213 460.522 381.04C460.037 380.867 459.56 380.78 459.092 380.78C458.364 380.78 457.705 380.936 457.116 381.248C456.527 381.56 456.015 381.976 455.582 382.496C455.166 382.999 454.845 383.579 454.62 384.238C454.395 384.897 454.282 385.573 454.282 386.266C454.282 386.994 454.412 387.687 454.672 388.346C454.932 389.005 455.287 389.585 455.738 390.088C456.189 390.573 456.717 390.963 457.324 391.258C457.948 391.553 458.615 391.7 459.326 391.7ZM469.546 393V379.454H471.314V393H469.546ZM469.546 376.62V374.02H471.314V376.62H469.546ZM480.98 393.26C479.992 393.26 479.09 393.078 478.276 392.714C477.461 392.333 476.75 391.821 476.144 391.18C475.554 390.539 475.095 389.793 474.766 388.944C474.436 388.095 474.272 387.202 474.272 386.266C474.272 385.313 474.436 384.411 474.766 383.562C475.112 382.713 475.58 381.967 476.17 381.326C476.776 380.685 477.487 380.173 478.302 379.792C479.116 379.411 480.009 379.22 480.98 379.22C481.95 379.22 482.843 379.411 483.658 379.792C484.49 380.173 485.2 380.685 485.79 381.326C486.396 381.967 486.864 382.713 487.194 383.562C487.54 384.411 487.714 385.313 487.714 386.266C487.714 387.202 487.549 388.095 487.22 388.944C486.89 389.793 486.422 390.539 485.816 391.18C485.226 391.821 484.516 392.333 483.684 392.714C482.869 393.078 481.968 393.26 480.98 393.26ZM476.066 386.292C476.066 387.055 476.196 387.765 476.456 388.424C476.716 389.065 477.062 389.637 477.496 390.14C477.946 390.625 478.466 391.007 479.056 391.284C479.662 391.561 480.304 391.7 480.98 391.7C481.656 391.7 482.288 391.561 482.878 391.284C483.484 390.989 484.013 390.599 484.464 390.114C484.914 389.611 485.27 389.031 485.53 388.372C485.79 387.713 485.92 387.003 485.92 386.24C485.92 385.495 485.79 384.793 485.53 384.134C485.27 383.458 484.914 382.877 484.464 382.392C484.013 381.889 483.484 381.499 482.878 381.222C482.288 380.927 481.656 380.78 480.98 380.78C480.304 380.78 479.671 380.927 479.082 381.222C478.492 381.499 477.972 381.889 477.522 382.392C477.071 382.895 476.716 383.484 476.456 384.16C476.196 384.819 476.066 385.529 476.066 386.292Z" fill="#FF5757"/>
<rect x="118" width="3" height="436" fill="#003F48"/>
<rect x="554" y="433" width="3" height="436" transform="rotate(90 554 433)" fill="#003F48"/>
<path d="M503.189 456.38H504.487L510.977 472H509.349L507.325 467.116H500.307L498.305 472H496.655L503.189 456.38ZM506.973 465.906L503.827 458.184L500.637 465.906H506.973ZM512.974 455.94H514.47V469.404C514.47 469.829 514.587 470.167 514.822 470.416C515.056 470.651 515.386 470.768 515.812 470.768C515.973 470.768 516.164 470.746 516.384 470.702C516.604 470.658 516.809 470.599 517 470.526L517.264 471.736C516.985 471.853 516.64 471.949 516.23 472.022C515.834 472.095 515.489 472.132 515.196 472.132C514.506 472.132 513.964 471.941 513.568 471.56C513.172 471.164 512.974 470.614 512.974 469.91V455.94ZM524.402 471.45C524.314 471.494 524.182 471.553 524.006 471.626C523.845 471.699 523.654 471.773 523.434 471.846C523.214 471.919 522.965 471.985 522.686 472.044C522.407 472.103 522.114 472.132 521.806 472.132C521.483 472.132 521.175 472.088 520.882 472C520.589 471.912 520.332 471.78 520.112 471.604C519.892 471.413 519.716 471.179 519.584 470.9C519.452 470.621 519.386 470.299 519.386 469.932V461.726H517.802V460.538H519.386V456.666H520.882V460.538H523.522V461.726H520.882V469.514C520.911 469.939 521.058 470.255 521.322 470.46C521.601 470.651 521.916 470.746 522.268 470.746C522.693 470.746 523.067 470.68 523.39 470.548C523.713 470.401 523.918 470.299 524.006 470.24L524.402 471.45ZM529.153 472.22C528.61 472.22 528.104 472.132 527.635 471.956C527.18 471.765 526.777 471.509 526.425 471.186C526.088 470.863 525.824 470.489 525.633 470.064C525.442 469.624 525.347 469.155 525.347 468.656C525.347 468.157 525.464 467.695 525.699 467.27C525.934 466.845 526.264 466.478 526.689 466.17C527.114 465.862 527.62 465.627 528.207 465.466C528.794 465.29 529.439 465.202 530.143 465.202C530.73 465.202 531.324 465.253 531.925 465.356C532.526 465.459 533.062 465.605 533.531 465.796V464.762C533.531 463.75 533.245 462.951 532.673 462.364C532.101 461.763 531.309 461.462 530.297 461.462C529.71 461.462 529.109 461.579 528.493 461.814C527.877 462.049 527.254 462.386 526.623 462.826L526.095 461.836C527.576 460.839 529.014 460.34 530.407 460.34C531.844 460.34 532.974 460.743 533.795 461.55C534.616 462.357 535.027 463.471 535.027 464.894V470.064C535.027 470.475 535.21 470.68 535.577 470.68V472C535.328 472.044 535.137 472.066 535.005 472.066C534.624 472.066 534.323 471.971 534.103 471.78C533.898 471.589 533.788 471.325 533.773 470.988L533.729 470.086C533.201 470.775 532.534 471.303 531.727 471.67C530.935 472.037 530.077 472.22 529.153 472.22ZM529.505 471.076C530.282 471.076 530.994 470.929 531.639 470.636C532.299 470.343 532.798 469.954 533.135 469.47C533.267 469.338 533.362 469.199 533.421 469.052C533.494 468.891 533.531 468.744 533.531 468.612V466.742C533.032 466.551 532.512 466.405 531.969 466.302C531.441 466.199 530.898 466.148 530.341 466.148C529.285 466.148 528.427 466.368 527.767 466.808C527.107 467.248 526.777 467.827 526.777 468.546C526.777 468.898 526.843 469.228 526.975 469.536C527.122 469.844 527.312 470.115 527.547 470.35C527.796 470.57 528.09 470.746 528.427 470.878C528.764 471.01 529.124 471.076 529.505 471.076Z" fill="#04353C"/>
<path d="M286.721 454.83V474H284.858V465.036H273.491V474H271.601V454.83H273.491V463.362H284.858V454.83H286.721ZM294.562 474.27C293.896 474.27 293.275 474.162 292.699 473.946C292.141 473.712 291.646 473.397 291.214 473.001C290.8 472.605 290.476 472.146 290.242 471.624C290.008 471.084 289.891 470.508 289.891 469.896C289.891 469.284 290.035 468.717 290.323 468.195C290.611 467.673 291.016 467.223 291.538 466.845C292.06 466.467 292.681 466.179 293.401 465.981C294.121 465.765 294.913 465.657 295.777 465.657C296.497 465.657 297.226 465.72 297.964 465.846C298.702 465.972 299.359 466.152 299.935 466.386V465.117C299.935 463.875 299.584 462.894 298.882 462.174C298.18 461.436 297.208 461.067 295.966 461.067C295.246 461.067 294.508 461.211 293.752 461.499C292.996 461.787 292.231 462.201 291.457 462.741L290.809 461.526C292.627 460.302 294.391 459.69 296.101 459.69C297.865 459.69 299.251 460.185 300.259 461.175C301.267 462.165 301.771 463.533 301.771 465.279V471.624C301.771 472.128 301.996 472.38 302.446 472.38V474C302.14 474.054 301.906 474.081 301.744 474.081C301.276 474.081 300.907 473.964 300.637 473.73C300.385 473.496 300.25 473.172 300.232 472.758L300.178 471.651C299.53 472.497 298.711 473.145 297.721 473.595C296.749 474.045 295.696 474.27 294.562 474.27ZM294.994 472.866C295.948 472.866 296.821 472.686 297.613 472.326C298.423 471.966 299.035 471.489 299.449 470.895C299.611 470.733 299.728 470.562 299.8 470.382C299.89 470.184 299.935 470.004 299.935 469.842V467.547C299.323 467.313 298.684 467.133 298.018 467.007C297.37 466.881 296.704 466.818 296.02 466.818C294.724 466.818 293.671 467.088 292.861 467.628C292.051 468.168 291.646 468.879 291.646 469.761C291.646 470.193 291.727 470.598 291.889 470.976C292.069 471.354 292.303 471.687 292.591 471.975C292.897 472.245 293.257 472.461 293.671 472.623C294.085 472.785 294.526 472.866 294.994 472.866ZM312.623 474.27C311.507 474.27 310.481 473.991 309.545 473.433C308.627 472.875 307.907 472.155 307.385 471.273V474H305.738V454.29H307.574V462.876C308.204 461.922 308.96 461.157 309.842 460.581C310.724 459.987 311.75 459.69 312.92 459.69C313.91 459.69 314.792 459.897 315.566 460.311C316.358 460.725 317.024 461.283 317.564 461.985C318.122 462.669 318.545 463.452 318.833 464.334C319.139 465.198 319.292 466.089 319.292 467.007C319.292 467.997 319.121 468.933 318.779 469.815C318.437 470.697 317.969 471.471 317.375 472.137C316.781 472.785 316.07 473.307 315.242 473.703C314.432 474.081 313.559 474.27 312.623 474.27ZM312.191 472.65C312.965 472.65 313.667 472.497 314.297 472.191C314.945 471.867 315.494 471.444 315.944 470.922C316.412 470.382 316.772 469.779 317.024 469.113C317.294 468.429 317.429 467.727 317.429 467.007C317.429 466.269 317.303 465.558 317.051 464.874C316.817 464.19 316.475 463.587 316.025 463.065C315.593 462.525 315.062 462.102 314.432 461.796C313.82 461.472 313.145 461.31 312.407 461.31C311.849 461.31 311.327 461.409 310.841 461.607C310.355 461.787 309.905 462.039 309.491 462.363C309.077 462.687 308.708 463.065 308.384 463.497C308.06 463.911 307.79 464.352 307.574 464.82V469.194C307.646 469.68 307.835 470.139 308.141 470.571C308.465 470.985 308.843 471.345 309.275 471.651C309.725 471.957 310.202 472.2 310.706 472.38C311.228 472.56 311.723 472.65 312.191 472.65ZM322.402 474V459.933H324.238V474H322.402ZM322.402 456.99V454.29H324.238V456.99H322.402ZM328.363 454.29H330.199V470.814C330.199 471.336 330.343 471.75 330.631 472.056C330.919 472.344 331.324 472.488 331.846 472.488C332.044 472.488 332.278 472.461 332.548 472.407C332.818 472.353 333.07 472.281 333.304 472.191L333.628 473.676C333.286 473.82 332.863 473.937 332.359 474.027C331.873 474.117 331.45 474.162 331.09 474.162C330.244 474.162 329.578 473.928 329.092 473.46C328.606 472.974 328.363 472.299 328.363 471.435V454.29ZM335.638 474V459.933H337.474V474H335.638ZM335.638 456.99V454.29H337.474V456.99H335.638ZM347.296 474.27C346.324 474.27 345.424 474.072 344.596 473.676C343.768 473.262 343.057 472.722 342.463 472.056C341.869 471.39 341.401 470.625 341.059 469.761C340.735 468.879 340.573 467.961 340.573 467.007C340.573 466.017 340.735 465.081 341.059 464.199C341.383 463.299 341.824 462.516 342.382 461.85C342.958 461.184 343.633 460.662 344.407 460.284C345.199 459.888 346.063 459.69 346.999 459.69C348.187 459.69 349.24 460.005 350.158 460.635C351.076 461.247 351.796 461.994 352.318 462.876V454.29H354.154V471.624C354.154 472.128 354.37 472.38 354.802 472.38V474C354.532 474.054 354.316 474.081 354.154 474.081C353.722 474.081 353.344 473.946 353.02 473.676C352.696 473.388 352.534 473.046 352.534 472.65V471.273C351.976 472.191 351.22 472.92 350.266 473.46C349.312 474 348.322 474.27 347.296 474.27ZM347.701 472.65C348.151 472.65 348.628 472.56 349.132 472.38C349.654 472.2 350.14 471.957 350.59 471.651C351.04 471.327 351.418 470.958 351.724 470.544C352.048 470.112 352.246 469.653 352.318 469.167V464.82C352.138 464.334 351.877 463.884 351.535 463.47C351.193 463.038 350.797 462.66 350.347 462.336C349.915 462.012 349.447 461.76 348.943 461.58C348.439 461.4 347.944 461.31 347.458 461.31C346.702 461.31 346.018 461.472 345.406 461.796C344.794 462.12 344.263 462.552 343.813 463.092C343.381 463.614 343.048 464.217 342.814 464.901C342.58 465.585 342.463 466.287 342.463 467.007C342.463 467.763 342.598 468.483 342.868 469.167C343.138 469.851 343.507 470.454 343.975 470.976C344.443 471.48 344.992 471.885 345.622 472.191C346.27 472.497 346.963 472.65 347.701 472.65ZM361.851 474.27C361.185 474.27 360.564 474.162 359.988 473.946C359.43 473.712 358.935 473.397 358.503 473.001C358.089 472.605 357.765 472.146 357.531 471.624C357.297 471.084 357.18 470.508 357.18 469.896C357.18 469.284 357.324 468.717 357.612 468.195C357.9 467.673 358.305 467.223 358.827 466.845C359.349 466.467 359.97 466.179 360.69 465.981C361.41 465.765 362.202 465.657 363.066 465.657C363.786 465.657 364.515 465.72 365.253 465.846C365.991 465.972 366.648 466.152 367.224 466.386V465.117C367.224 463.875 366.873 462.894 366.171 462.174C365.469 461.436 364.497 461.067 363.255 461.067C362.535 461.067 361.797 461.211 361.041 461.499C360.285 461.787 359.52 462.201 358.746 462.741L358.098 461.526C359.916 460.302 361.68 459.69 363.39 459.69C365.154 459.69 366.54 460.185 367.548 461.175C368.556 462.165 369.06 463.533 369.06 465.279V471.624C369.06 472.128 369.285 472.38 369.735 472.38V474C369.429 474.054 369.195 474.081 369.033 474.081C368.565 474.081 368.196 473.964 367.926 473.73C367.674 473.496 367.539 473.172 367.521 472.758L367.467 471.651C366.819 472.497 366 473.145 365.01 473.595C364.038 474.045 362.985 474.27 361.851 474.27ZM362.283 472.866C363.237 472.866 364.11 472.686 364.902 472.326C365.712 471.966 366.324 471.489 366.738 470.895C366.9 470.733 367.017 470.562 367.089 470.382C367.179 470.184 367.224 470.004 367.224 469.842V467.547C366.612 467.313 365.973 467.133 365.307 467.007C364.659 466.881 363.993 466.818 363.309 466.818C362.013 466.818 360.96 467.088 360.15 467.628C359.34 468.168 358.935 468.879 358.935 469.761C358.935 470.193 359.016 470.598 359.178 470.976C359.358 471.354 359.592 471.687 359.88 471.975C360.186 472.245 360.546 472.461 360.96 472.623C361.374 472.785 361.815 472.866 362.283 472.866ZM378.805 474.27C377.833 474.27 376.933 474.072 376.105 473.676C375.277 473.262 374.566 472.722 373.972 472.056C373.378 471.39 372.91 470.625 372.568 469.761C372.244 468.879 372.082 467.961 372.082 467.007C372.082 466.017 372.244 465.081 372.568 464.199C372.892 463.299 373.333 462.516 373.891 461.85C374.467 461.184 375.142 460.662 375.916 460.284C376.708 459.888 377.572 459.69 378.508 459.69C379.696 459.69 380.749 460.005 381.667 460.635C382.585 461.247 383.305 461.994 383.827 462.876V454.29H385.663V471.624C385.663 472.128 385.879 472.38 386.311 472.38V474C386.041 474.054 385.825 474.081 385.663 474.081C385.231 474.081 384.853 473.946 384.529 473.676C384.205 473.388 384.043 473.046 384.043 472.65V471.273C383.485 472.191 382.729 472.92 381.775 473.46C380.821 474 379.831 474.27 378.805 474.27ZM379.21 472.65C379.66 472.65 380.137 472.56 380.641 472.38C381.163 472.2 381.649 471.957 382.099 471.651C382.549 471.327 382.927 470.958 383.233 470.544C383.557 470.112 383.755 469.653 383.827 469.167V464.82C383.647 464.334 383.386 463.884 383.044 463.47C382.702 463.038 382.306 462.66 381.856 462.336C381.424 462.012 380.956 461.76 380.452 461.58C379.948 461.4 379.453 461.31 378.967 461.31C378.211 461.31 377.527 461.472 376.915 461.796C376.303 462.12 375.772 462.552 375.322 463.092C374.89 463.614 374.557 464.217 374.323 464.901C374.089 465.585 373.972 466.287 373.972 467.007C373.972 467.763 374.107 468.483 374.377 469.167C374.647 469.851 375.016 470.454 375.484 470.976C375.952 471.48 376.501 471.885 377.131 472.191C377.779 472.497 378.472 472.65 379.21 472.65ZM395.898 474.27C394.872 474.27 393.927 474.081 393.063 473.703C392.217 473.307 391.479 472.776 390.849 472.11C390.219 471.426 389.724 470.643 389.364 469.761C389.022 468.879 388.851 467.934 388.851 466.926C388.851 465.936 389.022 465.009 389.364 464.145C389.724 463.263 390.21 462.498 390.822 461.85C391.452 461.184 392.199 460.662 393.063 460.284C393.927 459.888 394.863 459.69 395.871 459.69C396.897 459.69 397.833 459.888 398.679 460.284C399.543 460.662 400.281 461.184 400.893 461.85C401.505 462.516 401.982 463.281 402.324 464.145C402.666 465.009 402.837 465.927 402.837 466.899C402.837 467.043 402.837 467.187 402.837 467.331C402.837 467.475 402.828 467.574 402.81 467.628H390.768C390.822 468.384 390.993 469.086 391.281 469.734C391.587 470.364 391.974 470.913 392.442 471.381C392.91 471.849 393.441 472.218 394.035 472.488C394.647 472.74 395.295 472.866 395.979 472.866C396.429 472.866 396.879 472.803 397.329 472.677C397.779 472.551 398.193 472.38 398.571 472.164C398.949 471.948 399.291 471.687 399.597 471.381C399.903 471.057 400.137 470.706 400.299 470.328L401.892 470.76C401.676 471.282 401.37 471.759 400.974 472.191C400.578 472.605 400.119 472.974 399.597 473.298C399.075 473.604 398.499 473.838 397.869 474C397.239 474.18 396.582 474.27 395.898 474.27ZM401.082 466.224C401.028 465.468 400.848 464.784 400.542 464.172C400.254 463.542 399.876 463.002 399.408 462.552C398.958 462.102 398.427 461.751 397.815 461.499C397.221 461.247 396.582 461.121 395.898 461.121C395.214 461.121 394.566 461.247 393.954 461.499C393.342 461.751 392.802 462.102 392.334 462.552C391.884 463.002 391.515 463.542 391.227 464.172C390.957 464.802 390.795 465.486 390.741 466.224H401.082ZM410.341 474.27C409.243 474.27 408.172 474.09 407.128 473.73C406.084 473.37 405.184 472.848 404.428 472.164L405.265 470.922C406.057 471.57 406.858 472.056 407.668 472.38C408.496 472.704 409.378 472.866 410.314 472.866C411.448 472.866 412.348 472.641 413.014 472.191C413.698 471.723 414.04 471.066 414.04 470.22C414.04 469.824 413.95 469.5 413.77 469.248C413.59 468.978 413.32 468.744 412.96 468.546C412.618 468.348 412.177 468.177 411.637 468.033C411.115 467.871 410.503 467.709 409.801 467.547C408.991 467.349 408.289 467.151 407.695 466.953C407.101 466.755 406.606 466.53 406.21 466.278C405.832 466.026 405.544 465.72 405.346 465.36C405.166 464.982 405.076 464.514 405.076 463.956C405.076 463.254 405.211 462.633 405.481 462.093C405.769 461.553 406.147 461.112 406.615 460.77C407.101 460.41 407.659 460.14 408.289 459.96C408.937 459.78 409.621 459.69 410.341 459.69C411.421 459.69 412.402 459.87 413.284 460.23C414.166 460.572 414.877 461.031 415.417 461.607L414.526 462.687C414.004 462.147 413.365 461.742 412.609 461.472C411.871 461.202 411.097 461.067 410.287 461.067C409.801 461.067 409.351 461.121 408.937 461.229C408.523 461.319 408.154 461.472 407.83 461.688C407.524 461.904 407.281 462.183 407.101 462.525C406.921 462.849 406.831 463.236 406.831 463.686C406.831 464.064 406.894 464.37 407.02 464.604C407.146 464.838 407.353 465.045 407.641 465.225C407.929 465.387 408.289 465.54 408.721 465.684C409.171 465.81 409.711 465.945 410.341 466.089C411.241 466.305 412.033 466.521 412.717 466.737C413.401 466.953 413.968 467.205 414.418 467.493C414.886 467.781 415.237 468.132 415.471 468.546C415.705 468.96 415.822 469.464 415.822 470.058C415.822 471.354 415.327 472.38 414.337 473.136C413.347 473.892 412.015 474.27 410.341 474.27Z" fill="#04353C"/>
<path d="M149.018 467.974C149.018 468.561 148.9 469.103 148.666 469.602C148.431 470.086 148.116 470.511 147.72 470.878C147.324 471.23 146.862 471.509 146.334 471.714C145.806 471.905 145.241 472 144.64 472H137.27V456.38H144.794C145.336 456.38 145.828 456.497 146.268 456.732C146.708 456.967 147.082 457.275 147.39 457.656C147.698 458.023 147.932 458.448 148.094 458.932C148.27 459.401 148.358 459.878 148.358 460.362C148.358 461.154 148.16 461.88 147.764 462.54C147.368 463.185 146.818 463.669 146.114 463.992C147.008 464.256 147.712 464.747 148.226 465.466C148.754 466.185 149.018 467.021 149.018 467.974ZM147.478 467.71C147.478 467.329 147.412 466.962 147.28 466.61C147.148 466.243 146.957 465.928 146.708 465.664C146.473 465.385 146.187 465.165 145.85 465.004C145.527 464.828 145.175 464.74 144.794 464.74H138.81V470.658H144.64C145.036 470.658 145.402 470.577 145.74 470.416C146.092 470.255 146.392 470.042 146.642 469.778C146.906 469.499 147.111 469.184 147.258 468.832C147.404 468.465 147.478 468.091 147.478 467.71ZM138.81 457.722V463.486H144.178C144.559 463.486 144.911 463.405 145.234 463.244C145.571 463.083 145.857 462.87 146.092 462.606C146.326 462.342 146.51 462.041 146.642 461.704C146.774 461.352 146.84 460.985 146.84 460.604C146.84 460.208 146.774 459.834 146.642 459.482C146.524 459.13 146.348 458.829 146.114 458.58C145.894 458.316 145.63 458.111 145.322 457.964C145.014 457.803 144.676 457.722 144.31 457.722H138.81ZM154.496 472.22C153.953 472.22 153.447 472.132 152.978 471.956C152.523 471.765 152.12 471.509 151.768 471.186C151.431 470.863 151.167 470.489 150.976 470.064C150.785 469.624 150.69 469.155 150.69 468.656C150.69 468.157 150.807 467.695 151.042 467.27C151.277 466.845 151.607 466.478 152.032 466.17C152.457 465.862 152.963 465.627 153.55 465.466C154.137 465.29 154.782 465.202 155.486 465.202C156.073 465.202 156.667 465.253 157.268 465.356C157.869 465.459 158.405 465.605 158.874 465.796V464.762C158.874 463.75 158.588 462.951 158.016 462.364C157.444 461.763 156.652 461.462 155.64 461.462C155.053 461.462 154.452 461.579 153.836 461.814C153.22 462.049 152.597 462.386 151.966 462.826L151.438 461.836C152.919 460.839 154.357 460.34 155.75 460.34C157.187 460.34 158.317 460.743 159.138 461.55C159.959 462.357 160.37 463.471 160.37 464.894V470.064C160.37 470.475 160.553 470.68 160.92 470.68V472C160.671 472.044 160.48 472.066 160.348 472.066C159.967 472.066 159.666 471.971 159.446 471.78C159.241 471.589 159.131 471.325 159.116 470.988L159.072 470.086C158.544 470.775 157.877 471.303 157.07 471.67C156.278 472.037 155.42 472.22 154.496 472.22ZM154.848 471.076C155.625 471.076 156.337 470.929 156.982 470.636C157.642 470.343 158.141 469.954 158.478 469.47C158.61 469.338 158.705 469.199 158.764 469.052C158.837 468.891 158.874 468.744 158.874 468.612V466.742C158.375 466.551 157.855 466.405 157.312 466.302C156.784 466.199 156.241 466.148 155.684 466.148C154.628 466.148 153.77 466.368 153.11 466.808C152.45 467.248 152.12 467.827 152.12 468.546C152.12 468.898 152.186 469.228 152.318 469.536C152.465 469.844 152.655 470.115 152.89 470.35C153.139 470.57 153.433 470.746 153.77 470.878C154.107 471.01 154.467 471.076 154.848 471.076ZM163.602 472V460.538H165.098V472H163.602ZM163.602 458.14V455.94H165.098V458.14H163.602ZM168.679 460.538L172.111 465.026L172.287 465.356L172.463 465.026L175.895 460.538H177.501L173.123 466.302L177.501 472H175.895L172.463 467.534L172.287 467.226L172.111 467.534L168.679 472H167.073L171.451 466.302L167.073 460.538H168.679ZM182.232 472.22C181.69 472.22 181.184 472.132 180.714 471.956C180.26 471.765 179.856 471.509 179.504 471.186C179.167 470.863 178.903 470.489 178.712 470.064C178.522 469.624 178.426 469.155 178.426 468.656C178.426 468.157 178.544 467.695 178.778 467.27C179.013 466.845 179.343 466.478 179.768 466.17C180.194 465.862 180.7 465.627 181.286 465.466C181.873 465.29 182.518 465.202 183.222 465.202C183.809 465.202 184.403 465.253 185.004 465.356C185.606 465.459 186.141 465.605 186.61 465.796V464.762C186.61 463.75 186.324 462.951 185.752 462.364C185.18 461.763 184.388 461.462 183.376 461.462C182.79 461.462 182.188 461.579 181.572 461.814C180.956 462.049 180.333 462.386 179.702 462.826L179.174 461.836C180.656 460.839 182.093 460.34 183.486 460.34C184.924 460.34 186.053 460.743 186.874 461.55C187.696 462.357 188.106 463.471 188.106 464.894V470.064C188.106 470.475 188.29 470.68 188.656 470.68V472C188.407 472.044 188.216 472.066 188.084 472.066C187.703 472.066 187.402 471.971 187.182 471.78C186.977 471.589 186.867 471.325 186.852 470.988L186.808 470.086C186.28 470.775 185.613 471.303 184.806 471.67C184.014 472.037 183.156 472.22 182.232 472.22ZM182.584 471.076C183.362 471.076 184.073 470.929 184.718 470.636C185.378 470.343 185.877 469.954 186.214 469.47C186.346 469.338 186.442 469.199 186.5 469.052C186.574 468.891 186.61 468.744 186.61 468.612V466.742C186.112 466.551 185.591 466.405 185.048 466.302C184.52 466.199 183.978 466.148 183.42 466.148C182.364 466.148 181.506 466.368 180.846 466.808C180.186 467.248 179.856 467.827 179.856 468.546C179.856 468.898 179.922 469.228 180.054 469.536C180.201 469.844 180.392 470.115 180.626 470.35C180.876 470.57 181.169 470.746 181.506 470.878C181.844 471.01 182.203 471.076 182.584 471.076Z" fill="#FF5757"/>
<path d="M71.2804 32.38H72.5784L79.0684 48H77.4404L75.4164 43.116H68.3984L66.3964 48H64.7464L71.2804 32.38ZM75.0644 41.906L71.9184 34.184L68.7284 41.906H75.0644ZM81.0656 31.94H82.5616V45.404C82.5616 45.8293 82.6789 46.1667 82.9136 46.416C83.1483 46.6507 83.4783 46.768 83.9036 46.768C84.0649 46.768 84.2556 46.746 84.4756 46.702C84.6956 46.658 84.9009 46.5993 85.0916 46.526L85.3556 47.736C85.0769 47.8533 84.7323 47.9487 84.3216 48.022C83.9256 48.0953 83.5809 48.132 83.2876 48.132C82.5983 48.132 82.0556 47.9413 81.6596 47.56C81.2636 47.164 81.0656 46.614 81.0656 45.91V31.94ZM92.4938 47.45C92.4058 47.494 92.2738 47.5527 92.0978 47.626C91.9364 47.6993 91.7458 47.7727 91.5258 47.846C91.3058 47.9193 91.0564 47.9853 90.7778 48.044C90.4991 48.1027 90.2058 48.132 89.8978 48.132C89.5751 48.132 89.2671 48.088 88.9738 48C88.6804 47.912 88.4238 47.78 88.2038 47.604C87.9838 47.4133 87.8078 47.1787 87.6758 46.9C87.5438 46.6213 87.4778 46.2987 87.4778 45.932V37.726H85.8938V36.538H87.4778V32.666H88.9738V36.538H91.6138V37.726H88.9738V45.514C89.0031 45.9393 89.1498 46.2547 89.4138 46.46C89.6924 46.6507 90.0078 46.746 90.3598 46.746C90.7851 46.746 91.1591 46.68 91.4818 46.548C91.8044 46.4013 92.0098 46.2987 92.0978 46.24L92.4938 47.45ZM98.9676 48.22C98.1316 48.22 97.3689 48.066 96.6796 47.758C95.9903 47.4353 95.3889 47.0027 94.8756 46.46C94.3769 45.9173 93.9883 45.2867 93.7096 44.568C93.4309 43.8493 93.2916 43.094 93.2916 42.302C93.2916 41.4953 93.4309 40.7327 93.7096 40.014C94.0029 39.2953 94.3989 38.6647 94.8976 38.122C95.4109 37.5793 96.0123 37.1467 96.7016 36.824C97.3909 36.5013 98.1463 36.34 98.9676 36.34C99.7889 36.34 100.544 36.5013 101.234 36.824C101.938 37.1467 102.539 37.5793 103.038 38.122C103.551 38.6647 103.947 39.2953 104.226 40.014C104.519 40.7327 104.666 41.4953 104.666 42.302C104.666 43.094 104.526 43.8493 104.248 44.568C103.969 45.2867 103.573 45.9173 103.06 46.46C102.561 47.0027 101.96 47.4353 101.256 47.758C100.566 48.066 99.8036 48.22 98.9676 48.22ZM94.8096 42.324C94.8096 42.9693 94.9196 43.5707 95.1396 44.128C95.3596 44.6707 95.6529 45.1547 96.0196 45.58C96.4009 45.9907 96.8409 46.3133 97.3396 46.548C97.8529 46.7827 98.3956 46.9 98.9676 46.9C99.5396 46.9 100.075 46.7827 100.574 46.548C101.087 46.2987 101.534 45.9687 101.916 45.558C102.297 45.1327 102.598 44.6413 102.818 44.084C103.038 43.5267 103.148 42.9253 103.148 42.28C103.148 41.6493 103.038 41.0553 102.818 40.498C102.598 39.926 102.297 39.4347 101.916 39.024C101.534 38.5987 101.087 38.2687 100.574 38.034C100.075 37.7847 99.5396 37.66 98.9676 37.66C98.3956 37.66 97.8603 37.7847 97.3616 38.034C96.8629 38.2687 96.4229 38.5987 96.0416 39.024C95.6603 39.4493 95.3596 39.948 95.1396 40.52C94.9196 41.0773 94.8096 41.6787 94.8096 42.324Z" fill="#04353C"/>
<path d="M2.53679 228L2.53679 208.83H9.04379C10.5738 208.83 11.9058 209.082 13.0398 209.586C14.1918 210.09 15.1458 210.774 15.9018 211.638C16.6758 212.502 17.2518 213.519 17.6298 214.689C18.0258 215.841 18.2238 217.074 18.2238 218.388C18.2238 219.846 18.0078 221.169 17.5758 222.357C17.1438 223.527 16.5228 224.535 15.7128 225.381C14.9208 226.209 13.9578 226.857 12.8238 227.325C11.7078 227.775 10.4478 228 9.04379 228H2.53679ZM16.3338 218.388C16.3338 217.236 16.1718 216.183 15.8478 215.229C15.5238 214.257 15.0468 213.42 14.4168 212.718C13.8048 212.016 13.0488 211.476 12.1488 211.098C11.2488 210.702 10.2138 210.504 9.04379 210.504H4.42679L4.42679 226.326H9.04379C10.2318 226.326 11.2758 226.128 12.1758 225.732C13.0938 225.318 13.8588 224.76 14.4708 224.058C15.0828 223.338 15.5418 222.501 15.8478 221.547C16.1718 220.575 16.3338 219.522 16.3338 218.388ZM27.5346 228.27C26.5086 228.27 25.5636 228.081 24.6996 227.703C23.8536 227.307 23.1156 226.776 22.4856 226.11C21.8556 225.426 21.3606 224.643 21.0006 223.761C20.6586 222.879 20.4876 221.934 20.4876 220.926C20.4876 219.936 20.6586 219.009 21.0006 218.145C21.3606 217.263 21.8466 216.498 22.4586 215.85C23.0886 215.184 23.8356 214.662 24.6996 214.284C25.5636 213.888 26.4996 213.69 27.5076 213.69C28.5336 213.69 29.4696 213.888 30.3156 214.284C31.1796 214.662 31.9176 215.184 32.5296 215.85C33.1416 216.516 33.6186 217.281 33.9606 218.145C34.3026 219.009 34.4736 219.927 34.4736 220.899C34.4736 221.043 34.4736 221.187 34.4736 221.331C34.4736 221.475 34.4646 221.574 34.4466 221.628H22.4046C22.4586 222.384 22.6296 223.086 22.9176 223.734C23.2236 224.364 23.6106 224.913 24.0786 225.381C24.5466 225.849 25.0776 226.218 25.6716 226.488C26.2836 226.74 26.9316 226.866 27.6156 226.866C28.0656 226.866 28.5156 226.803 28.9656 226.677C29.4156 226.551 29.8296 226.38 30.2076 226.164C30.5856 225.948 30.9276 225.687 31.2336 225.381C31.5396 225.057 31.7736 224.706 31.9356 224.328L33.5286 224.76C33.3126 225.282 33.0066 225.759 32.6106 226.191C32.2146 226.605 31.7556 226.974 31.2336 227.298C30.7116 227.604 30.1356 227.838 29.5056 228C28.8756 228.18 28.2186 228.27 27.5346 228.27ZM32.7186 220.224C32.6646 219.468 32.4846 218.784 32.1786 218.172C31.8906 217.542 31.5126 217.002 31.0446 216.552C30.5946 216.102 30.0636 215.751 29.4516 215.499C28.8576 215.247 28.2186 215.121 27.5346 215.121C26.8506 215.121 26.2026 215.247 25.5906 215.499C24.9786 215.751 24.4386 216.102 23.9706 216.552C23.5206 217.002 23.1516 217.542 22.8636 218.172C22.5936 218.802 22.4316 219.486 22.3776 220.224H32.7186ZM41.9773 228.27C40.8793 228.27 39.8083 228.09 38.7643 227.73C37.7203 227.37 36.8203 226.848 36.0643 226.164L36.9013 224.922C37.6933 225.57 38.4943 226.056 39.3043 226.38C40.1323 226.704 41.0143 226.866 41.9503 226.866C43.0843 226.866 43.9843 226.641 44.6503 226.191C45.3343 225.723 45.6763 225.066 45.6763 224.22C45.6763 223.824 45.5863 223.5 45.4063 223.248C45.2263 222.978 44.9563 222.744 44.5963 222.546C44.2543 222.348 43.8133 222.177 43.2733 222.033C42.7513 221.871 42.1393 221.709 41.4373 221.547C40.6273 221.349 39.9253 221.151 39.3313 220.953C38.7373 220.755 38.2423 220.53 37.8463 220.278C37.4683 220.026 37.1803 219.72 36.9823 219.36C36.8023 218.982 36.7123 218.514 36.7123 217.956C36.7123 217.254 36.8473 216.633 37.1173 216.093C37.4053 215.553 37.7833 215.112 38.2513 214.77C38.7373 214.41 39.2953 214.14 39.9253 213.96C40.5733 213.78 41.2573 213.69 41.9773 213.69C43.0573 213.69 44.0383 213.87 44.9203 214.23C45.8023 214.572 46.5133 215.031 47.0533 215.607L46.1623 216.687C45.6403 216.147 45.0013 215.742 44.2453 215.472C43.5073 215.202 42.7333 215.067 41.9233 215.067C41.4373 215.067 40.9873 215.121 40.5733 215.229C40.1593 215.319 39.7903 215.472 39.4663 215.688C39.1603 215.904 38.9173 216.183 38.7373 216.525C38.5573 216.849 38.4673 217.236 38.4673 217.686C38.4673 218.064 38.5303 218.37 38.6562 218.604C38.7822 218.838 38.9893 219.045 39.2773 219.225C39.5653 219.387 39.9253 219.54 40.3573 219.684C40.8073 219.81 41.3473 219.945 41.9773 220.089C42.8773 220.305 43.6693 220.521 44.3533 220.737C45.0373 220.953 45.6043 221.205 46.0543 221.493C46.5223 221.781 46.8733 222.132 47.1073 222.546C47.3413 222.96 47.4583 223.464 47.4583 224.058C47.4583 225.354 46.9633 226.38 45.9733 227.136C44.9833 227.892 43.6513 228.27 41.9773 228.27ZM54.0005 228.27C53.3345 228.27 52.7135 228.162 52.1375 227.946C51.5795 227.712 51.0845 227.397 50.6525 227.001C50.2385 226.605 49.9145 226.146 49.6805 225.624C49.4465 225.084 49.3295 224.508 49.3295 223.896C49.3295 223.284 49.4735 222.717 49.7615 222.195C50.0495 221.673 50.4545 221.223 50.9765 220.845C51.4985 220.467 52.1195 220.179 52.8395 219.981C53.5595 219.765 54.3515 219.657 55.2155 219.657C55.9355 219.657 56.6645 219.72 57.4025 219.846C58.1405 219.972 58.7975 220.152 59.3735 220.386V219.117C59.3735 217.875 59.0225 216.894 58.3205 216.174C57.6185 215.436 56.6465 215.067 55.4045 215.067C54.6845 215.067 53.9465 215.211 53.1905 215.499C52.4345 215.787 51.6695 216.201 50.8955 216.741L50.2475 215.526C52.0655 214.302 53.8295 213.69 55.5395 213.69C57.3035 213.69 58.6895 214.185 59.6975 215.175C60.7055 216.165 61.2095 217.533 61.2095 219.279L61.2095 225.624C61.2095 226.128 61.4345 226.38 61.8845 226.38V228C61.5785 228.054 61.3445 228.081 61.1825 228.081C60.7145 228.081 60.3455 227.964 60.0755 227.73C59.8235 227.496 59.6885 227.172 59.6705 226.758L59.6165 225.651C58.9685 226.497 58.1495 227.145 57.1595 227.595C56.1875 228.045 55.1345 228.27 54.0005 228.27ZM54.4325 226.866C55.3865 226.866 56.2595 226.686 57.0515 226.326C57.8615 225.966 58.4735 225.489 58.8875 224.895C59.0495 224.733 59.1665 224.562 59.2385 224.382C59.3285 224.184 59.3735 224.004 59.3735 223.842V221.547C58.7615 221.313 58.1225 221.133 57.4565 221.007C56.8085 220.881 56.1425 220.818 55.4585 220.818C54.1625 220.818 53.1095 221.088 52.2995 221.628C51.4895 222.168 51.0845 222.879 51.0845 223.761C51.0845 224.193 51.1655 224.598 51.3275 224.976C51.5075 225.354 51.7415 225.687 52.0295 225.975C52.3355 226.245 52.6955 226.461 53.1095 226.623C53.5235 226.785 53.9645 226.866 54.4325 226.866ZM65.7459 215.391H63.8019V213.933H65.7459V213.555C65.7459 212.907 65.8359 212.25 66.0159 211.584C66.2139 210.918 66.5109 210.324 66.9069 209.802C67.3209 209.28 67.8429 208.857 68.4729 208.533C69.1029 208.191 69.8499 208.02 70.7139 208.02C71.1999 208.02 71.6589 208.065 72.0909 208.155C72.5229 208.245 72.9099 208.353 73.2519 208.479C73.6119 208.605 73.9179 208.749 74.1699 208.911C74.4219 209.055 74.6289 209.181 74.7909 209.289L73.9539 210.612C73.6479 210.342 73.2159 210.117 72.6579 209.937C72.0999 209.739 71.4879 209.64 70.8219 209.64C70.2459 209.64 69.7509 209.757 69.3369 209.991C68.9409 210.225 68.6079 210.522 68.3379 210.882C68.0859 211.242 67.8969 211.656 67.7709 212.124C67.6449 212.592 67.5819 213.051 67.5819 213.501V213.933H74.6289V228H72.7929V215.391H67.5819V228H65.7459V215.391ZM84.6704 228.27C83.6444 228.27 82.7084 228.081 81.8624 227.703C81.0164 227.307 80.2784 226.776 79.6484 226.11C79.0364 225.444 78.5594 224.67 78.2174 223.788C77.8754 222.906 77.7044 221.979 77.7044 221.007C77.7044 220.017 77.8754 219.081 78.2174 218.199C78.5774 217.317 79.0634 216.543 79.6754 215.877C80.3054 215.211 81.0434 214.68 81.8894 214.284C82.7354 213.888 83.6624 213.69 84.6704 213.69C85.6784 213.69 86.6054 213.888 87.4514 214.284C88.3154 214.68 89.0534 215.211 89.6654 215.877C90.2954 216.543 90.7814 217.317 91.1234 218.199C91.4834 219.081 91.6634 220.017 91.6634 221.007C91.6634 221.979 91.4924 222.906 91.1504 223.788C90.8084 224.67 90.3224 225.444 89.6924 226.11C89.0804 226.776 88.3424 227.307 87.4784 227.703C86.6324 228.081 85.6964 228.27 84.6704 228.27ZM79.5674 221.034C79.5674 221.826 79.7024 222.564 79.9724 223.248C80.2424 223.914 80.6024 224.508 81.0524 225.03C81.5204 225.534 82.0604 225.93 82.6724 226.218C83.3024 226.506 83.9684 226.65 84.6704 226.65C85.3724 226.65 86.0294 226.506 86.6414 226.218C87.2714 225.912 87.8204 225.507 88.2884 225.003C88.7564 224.481 89.1254 223.878 89.3954 223.194C89.6654 222.51 89.8004 221.772 89.8004 220.98C89.8004 220.206 89.6654 219.477 89.3954 218.793C89.1254 218.091 88.7564 217.488 88.2884 216.984C87.8204 216.462 87.2714 216.057 86.6414 215.769C86.0294 215.463 85.3724 215.31 84.6704 215.31C83.9684 215.31 83.3114 215.463 82.6994 215.769C82.0874 216.057 81.5474 216.462 81.0794 216.984C80.6114 217.506 80.2424 218.118 79.9724 218.82C79.7024 219.504 79.5674 220.242 79.5674 221.034ZM99.405 228.27C98.307 228.27 97.236 228.09 96.192 227.73C95.148 227.37 94.248 226.848 93.492 226.164L94.329 224.922C95.121 225.57 95.922 226.056 96.732 226.38C97.56 226.704 98.442 226.866 99.378 226.866C100.512 226.866 101.412 226.641 102.078 226.191C102.762 225.723 103.104 225.066 103.104 224.22C103.104 223.824 103.014 223.5 102.834 223.248C102.654 222.978 102.384 222.744 102.024 222.546C101.682 222.348 101.241 222.177 100.701 222.033C100.179 221.871 99.567 221.709 98.865 221.547C98.055 221.349 97.353 221.151 96.759 220.953C96.165 220.755 95.67 220.53 95.274 220.278C94.896 220.026 94.608 219.72 94.41 219.36C94.23 218.982 94.14 218.514 94.14 217.956C94.14 217.254 94.275 216.633 94.545 216.093C94.833 215.553 95.211 215.112 95.679 214.77C96.165 214.41 96.723 214.14 97.353 213.96C98.001 213.78 98.685 213.69 99.405 213.69C100.485 213.69 101.466 213.87 102.348 214.23C103.23 214.572 103.941 215.031 104.481 215.607L103.59 216.687C103.068 216.147 102.429 215.742 101.673 215.472C100.935 215.202 100.161 215.067 99.351 215.067C98.865 215.067 98.415 215.121 98.001 215.229C97.587 215.319 97.218 215.472 96.894 215.688C96.588 215.904 96.345 216.183 96.165 216.525C95.985 216.849 95.895 217.236 95.895 217.686C95.895 218.064 95.958 218.37 96.084 218.604C96.21 218.838 96.417 219.045 96.705 219.225C96.993 219.387 97.353 219.54 97.785 219.684C98.235 219.81 98.775 219.945 99.405 220.089C100.305 220.305 101.097 220.521 101.781 220.737C102.465 220.953 103.032 221.205 103.482 221.493C103.95 221.781 104.301 222.132 104.535 222.546C104.769 222.96 104.886 223.464 104.886 224.058C104.886 225.354 104.391 226.38 103.401 227.136C102.411 227.892 101.079 228.27 99.405 228.27Z" fill="#04353C"/>
<path d="M64.1523 399.974C64.1523 400.561 64.035 401.103 63.8003 401.602C63.5656 402.086 63.2503 402.511 62.8543 402.878C62.4583 403.23 61.9963 403.509 61.4683 403.714C60.9403 403.905 60.3756 404 59.7743 404H52.4043V388.38H59.9283C60.471 388.38 60.9623 388.497 61.4023 388.732C61.8423 388.967 62.2163 389.275 62.5243 389.656C62.8323 390.023 63.067 390.448 63.2283 390.932C63.4043 391.401 63.4923 391.878 63.4923 392.362C63.4923 393.154 63.2943 393.88 62.8983 394.54C62.5023 395.185 61.9523 395.669 61.2483 395.992C62.143 396.256 62.847 396.747 63.3603 397.466C63.8883 398.185 64.1523 399.021 64.1523 399.974ZM62.6123 399.71C62.6123 399.329 62.5463 398.962 62.4143 398.61C62.2823 398.243 62.0916 397.928 61.8423 397.664C61.6076 397.385 61.3216 397.165 60.9843 397.004C60.6616 396.828 60.3096 396.74 59.9283 396.74H53.9443V402.658H59.7743C60.1703 402.658 60.537 402.577 60.8743 402.416C61.2263 402.255 61.527 402.042 61.7763 401.778C62.0403 401.499 62.2456 401.184 62.3923 400.832C62.539 400.465 62.6123 400.091 62.6123 399.71ZM53.9443 389.722V395.486H59.3123C59.6936 395.486 60.0456 395.405 60.3683 395.244C60.7056 395.083 60.9916 394.87 61.2263 394.606C61.461 394.342 61.6443 394.041 61.7763 393.704C61.9083 393.352 61.9743 392.985 61.9743 392.604C61.9743 392.208 61.9083 391.834 61.7763 391.482C61.659 391.13 61.483 390.829 61.2483 390.58C61.0283 390.316 60.7643 390.111 60.4563 389.964C60.1483 389.803 59.811 389.722 59.4443 389.722H53.9443ZM69.6306 404.22C69.088 404.22 68.582 404.132 68.1126 403.956C67.658 403.765 67.2546 403.509 66.9026 403.186C66.5653 402.863 66.3013 402.489 66.1106 402.064C65.92 401.624 65.8246 401.155 65.8246 400.656C65.8246 400.157 65.942 399.695 66.1766 399.27C66.4113 398.845 66.7413 398.478 67.1666 398.17C67.592 397.862 68.098 397.627 68.6846 397.466C69.2713 397.29 69.9166 397.202 70.6206 397.202C71.2073 397.202 71.8013 397.253 72.4026 397.356C73.004 397.459 73.5393 397.605 74.0086 397.796V396.762C74.0086 395.75 73.7226 394.951 73.1506 394.364C72.5786 393.763 71.7866 393.462 70.7746 393.462C70.188 393.462 69.5866 393.579 68.9706 393.814C68.3546 394.049 67.7313 394.386 67.1006 394.826L66.5726 393.836C68.054 392.839 69.4913 392.34 70.8846 392.34C72.322 392.34 73.4513 392.743 74.2726 393.55C75.094 394.357 75.5046 395.471 75.5046 396.894V402.064C75.5046 402.475 75.688 402.68 76.0546 402.68V404C75.8053 404.044 75.6146 404.066 75.4826 404.066C75.1013 404.066 74.8006 403.971 74.5806 403.78C74.3753 403.589 74.2653 403.325 74.2506 402.988L74.2066 402.086C73.6786 402.775 73.0113 403.303 72.2046 403.67C71.4126 404.037 70.5546 404.22 69.6306 404.22ZM69.9826 403.076C70.76 403.076 71.4713 402.929 72.1166 402.636C72.7766 402.343 73.2753 401.954 73.6126 401.47C73.7446 401.338 73.84 401.199 73.8986 401.052C73.972 400.891 74.0086 400.744 74.0086 400.612V398.742C73.51 398.551 72.9893 398.405 72.4466 398.302C71.9186 398.199 71.376 398.148 70.8186 398.148C69.7626 398.148 68.9046 398.368 68.2446 398.808C67.5846 399.248 67.2546 399.827 67.2546 400.546C67.2546 400.898 67.3206 401.228 67.4526 401.536C67.5993 401.844 67.79 402.115 68.0246 402.35C68.274 402.57 68.5673 402.746 68.9046 402.878C69.242 403.01 69.6013 403.076 69.9826 403.076ZM78.7369 404V392.538H80.2329V404H78.7369ZM78.7369 390.14V387.94H80.2329V390.14H78.7369ZM83.8139 392.538L87.2459 397.026L87.4219 397.356L87.5979 397.026L91.0299 392.538H92.6359L88.2579 398.302L92.6359 404H91.0299L87.5979 399.534L87.4219 399.226L87.2459 399.534L83.8139 404H82.2079L86.5859 398.302L82.2079 392.538H83.8139ZM99.0037 404.22C98.1677 404.22 97.4051 404.066 96.7157 403.758C96.0264 403.435 95.4251 403.003 94.9117 402.46C94.4131 401.917 94.0244 401.287 93.7457 400.568C93.4671 399.849 93.3277 399.094 93.3277 398.302C93.3277 397.495 93.4671 396.733 93.7457 396.014C94.0391 395.295 94.4351 394.665 94.9337 394.122C95.4471 393.579 96.0484 393.147 96.7377 392.824C97.4271 392.501 98.1824 392.34 99.0037 392.34C99.8251 392.34 100.58 392.501 101.27 392.824C101.974 393.147 102.575 393.579 103.074 394.122C103.587 394.665 103.983 395.295 104.262 396.014C104.555 396.733 104.702 397.495 104.702 398.302C104.702 399.094 104.562 399.849 104.284 400.568C104.005 401.287 103.609 401.917 103.096 402.46C102.597 403.003 101.996 403.435 101.292 403.758C100.602 404.066 99.8397 404.22 99.0037 404.22ZM94.8457 398.324C94.8457 398.969 94.9557 399.571 95.1757 400.128C95.3957 400.671 95.6891 401.155 96.0557 401.58C96.4371 401.991 96.8771 402.313 97.3757 402.548C97.8891 402.783 98.4317 402.9 99.0037 402.9C99.5757 402.9 100.111 402.783 100.61 402.548C101.123 402.299 101.57 401.969 101.952 401.558C102.333 401.133 102.634 400.641 102.854 400.084C103.074 399.527 103.184 398.925 103.184 398.28C103.184 397.649 103.074 397.055 102.854 396.498C102.634 395.926 102.333 395.435 101.952 395.024C101.57 394.599 101.123 394.269 100.61 394.034C100.111 393.785 99.5757 393.66 99.0037 393.66C98.4317 393.66 97.8964 393.785 97.3977 394.034C96.8991 394.269 96.4591 394.599 96.0777 395.024C95.6964 395.449 95.3957 395.948 95.1757 396.52C94.9557 397.077 94.8457 397.679 94.8457 398.324Z" fill="#FF5757"/>
</svg>
