<svg width="480" height="480" viewBox="0 0 480 480" fill="none" xmlns="http://www.w3.org/2000/svg">
<path d="M472 0H440C435.576 0 432 3.576 432 8V24H408H368H344V8C344 3.576 340.424 0 336 0H304C299.576 0 296 3.576 296 8V56C296 60.424 299.576 64 304 64H336C340.424 64 344 60.424 344 56V40H358.144L330.848 169.656C330.072 173.328 326.784 176 323.016 176H282.192C295.528 164.264 304 147.12 304 128C304 92.712 275.288 64 240 64C204.712 64 176 92.712 176 128C176 147.12 184.472 164.264 197.808 176H156.984C153.216 176 149.928 173.328 149.152 169.648L121.856 40H136V56C136 60.424 139.576 64 144 64H176C180.424 64 184 60.424 184 56V8C184 3.576 180.424 0 176 0H144C139.576 0 136 3.576 136 8V24H112H72H48V8C48 3.576 44.424 0 40 0H8C3.576 0 0 3.576 0 8V56C0 60.424 3.576 64 8 64H40C44.424 64 48 60.424 48 56V40H65.224L91.656 198.568C94.88 217.944 111.48 232 131.112 232H176V327.128L144.184 470.272C143.664 472.64 144.24 475.112 145.752 477.016C147.28 478.896 149.568 480 152 480H208C211.752 480 214.992 477.4 215.816 473.736L240 364.872L264.184 473.728C265.008 477.4 268.248 480 272 480H328C330.432 480 332.72 478.896 334.24 477.008C335.752 475.112 336.336 472.632 335.808 470.264L304 327.128V232H348.888C368.52 232 385.112 217.944 388.344 198.568L414.776 40H432V56C432 60.424 435.576 64 440 64H472C476.424 64 480 60.424 480 56V8C480 3.576 476.424 0 472 0ZM328 48H312V16H328V48ZM152 16H168V48H152V16ZM32 48H16V16H32V48ZM192 128C192 101.528 213.528 80 240 80C266.472 80 288 101.528 288 128C288 154.472 266.472 176 240 176C213.528 176 192 154.472 192 128ZM372.56 195.944C370.624 207.56 360.672 216 348.888 216H296C291.576 216 288 219.576 288 224V328C288 328.584 288.064 329.168 288.184 329.736L318.024 464H278.416L247.816 326.264C246.992 322.6 243.752 320 240 320C236.248 320 233.008 322.6 232.184 326.264L201.584 464H161.976L191.808 329.736C191.936 329.168 192 328.584 192 328V224C192 219.576 188.424 216 184 216H131.112C119.328 216 109.376 207.56 107.44 195.944L81.448 40H105.512L133.504 172.936C135.824 183.984 145.696 192 156.984 192H323.016C334.304 192 344.184 183.984 346.504 172.944L374.496 40H398.56L372.56 195.944ZM464 48H448V16H464V48Z" fill="#003f48"/>
<path d="M472 160H456V184H472V160Z" fill="#003f48"/>
<path d="M472 200H456V352H472V200Z" fill="#003f48"/>
<path d="M424 208H408V232H424V208Z" fill="#003f48"/>
<path d="M424 248H408V400H424V248Z" fill="#003f48"/>
<path d="M24 168H8V192H24V168Z" fill="#003f48"/>
<path d="M24 208H8V360H24V208Z" fill="#003f48"/>
<path d="M72 216H56V240H72V216Z" fill="#003f48"/>
<path d="M72 256H56V408H72V256Z" fill="#003f48"/>
</svg>
