<svg width="480" height="480" viewBox="0 0 480 480" fill="none" xmlns="http://www.w3.org/2000/svg">
<path d="M64 400V384H48V400H32V416H48V432H64V416H80V400H64Z" fill="#003f48"/>
<path d="M160 384C146.768 384 136 394.768 136 408C136 421.232 146.768 432 160 432C173.232 432 184 421.232 184 408C184 394.768 173.232 384 160 384ZM160 416C155.584 416 152 412.408 152 408C152 403.592 155.584 400 160 400C164.416 400 168 403.592 168 408C168 412.408 164.416 416 160 416Z" fill="#003f48"/>
<path d="M320 400V384H304V400H288V416H304V432H320V416H336V400H320Z" fill="#003f48"/>
<path d="M416 384C402.768 384 392 394.768 392 408C392 421.232 402.768 432 416 432C429.232 432 440 421.232 440 408C440 394.768 429.232 384 416 384ZM416 416C411.584 416 408 412.408 408 408C408 403.592 411.584 400 416 400C420.416 400 424 403.592 424 408C424 412.408 420.416 416 416 416Z" fill="#003f48"/>
<path d="M416 352H392V336C392 327.176 384.824 320 376 320V304H456C460.424 304 464 300.416 464 296V128C464 123.584 460.424 120 456 120H368V8C368 3.584 364.424 0 360 0H120C115.576 0 112 3.584 112 8V120H24C19.576 120 16 123.584 16 128V296C16 300.416 19.576 304 24 304H104V320C95.176 320 88 327.176 88 336V352H64C28.712 352 0 380.712 0 416C0 451.288 28.712 480 64 480C66.128 480 68.16 479.16 69.656 477.656L83.312 464H140.688L154.344 477.656C155.84 479.16 157.872 480 160 480C195.288 480 224 451.288 224 416C224 380.712 195.288 352 160 352H136V336C136 327.176 128.824 320 120 320V296C120 291.584 116.424 288 112 288H32V136H112V168C112 172.416 115.576 176 120 176H176V192H72C67.576 192 64 195.584 64 200V264C64 268.416 67.576 272 72 272H408C412.424 272 416 268.416 416 264V200C416 195.584 412.424 192 408 192H304V176H360C364.424 176 368 172.416 368 168V136H448V288H368C363.576 288 360 291.584 360 296V320C351.176 320 344 327.176 344 336V352H320C284.712 352 256 380.712 256 416C256 451.288 284.712 480 320 480C322.128 480 324.16 479.16 325.656 477.656L339.312 464H396.688L410.344 477.656C411.84 479.16 413.872 480 416 480C451.288 480 480 451.288 480 416C480 380.712 451.288 352 416 352ZM128 368H160C186.472 368 208 389.528 208 416C208 441.392 188.184 462.24 163.208 463.896L149.656 450.344C148.16 448.84 146.128 448 144 448H80C77.872 448 75.84 448.84 74.344 450.344L60.792 463.896C35.816 462.24 16 441.392 16 416C16 389.528 37.528 368 64 368H96H128ZM120 336V352H104V336H120ZM400 208V256H80V208H184H296H400ZM192 192V176H288V192H192ZM352 160H296H184H128V16H352V160ZM360 336H376V352H360V336ZM419.208 463.896L405.656 450.344C404.16 448.84 402.128 448 400 448H336C333.872 448 331.84 448.84 330.344 450.344L316.792 463.896C291.816 462.24 272 441.392 272 416C272 389.528 293.528 368 320 368H352H384H416C442.472 368 464 389.528 464 416C464 441.392 444.184 462.24 419.208 463.896Z" fill="#003f48"/>
<path d="M235.232 103.288C234.56 101.28 233.112 99.608 231.216 98.656L209.888 88L231.208 77.336C233.104 76.384 234.552 74.72 235.224 72.704C235.888 70.688 235.728 68.488 234.776 66.592C226.56 50.192 210.168 40 192 40C165.528 40 144 61.528 144 88C144 114.472 165.528 136 192 136C210.168 136 226.56 125.808 234.784 109.4C235.736 107.504 235.896 105.304 235.232 103.288ZM192 120C174.352 120 160 105.648 160 88C160 70.352 174.352 56 192 56C201.368 56 210.032 60.096 216.016 67.048L188.424 80.84C185.712 82.2 184 84.968 184 88C184 91.032 185.712 93.8 188.424 95.16L216.016 108.952C210.032 115.904 201.368 120 192 120Z" fill="#003f48"/>
<path d="M272 80H256V96H272V80Z" fill="#003f48"/>
<path d="M304 80H288V96H304V80Z" fill="#003f48"/>
<path d="M336 80H320V96H336V80Z" fill="#003f48"/>
</svg>
