<svg width="480" height="480" viewBox="0 0 480 480" fill="none" xmlns="http://www.w3.org/2000/svg">
<path d="M472 296H456V176C456 173.72 455.024 171.544 453.328 170.032C451.624 168.504 449.368 167.76 447.088 168.056L424 170.72V144C424 141.688 423 139.496 421.264 137.976C419.52 136.456 417.232 135.768 414.92 136.072L319.912 149.032C330.344 133.448 336 115.216 336 96C336 43.064 292.936 0 240 0C187.064 0 144 43.064 144 96C144 115.216 149.656 133.448 160.088 149.032L65.08 136.072C62.76 135.768 60.48 136.456 58.736 137.976C57 139.496 56 141.688 56 144V170.72L32.92 168.056C30.632 167.76 28.376 168.512 26.68 170.032C24.976 171.544 24 173.72 24 176V296H8C3.584 296 0 299.576 0 304V400C0 404.424 3.584 408 8 408H24V448C24 452.064 27.048 455.488 31.08 455.944L239.08 479.944C239.392 479.984 239.696 480 240 480C240.304 480 240.608 479.984 240.92 479.944L448.92 455.944C452.952 455.488 456 452.064 456 448V408H472C476.416 408 480 404.424 480 400V304C480 299.576 476.416 296 472 296ZM408 153.168V172.56L248 191.016V174.976L301.64 167.664H301.648L408 153.168ZM16 392V312H32C54.056 312 72 329.944 72 352C72 374.056 54.056 392 32 392H16ZM232 463.024L40 440.864V407.424C40.624 407.336 41.224 407.184 41.832 407.072C42.584 406.936 43.336 406.808 44.072 406.648C45.104 406.424 46.112 406.144 47.12 405.864C47.816 405.672 48.512 405.488 49.2 405.264C50.256 404.92 51.28 404.528 52.312 404.12C52.912 403.888 53.52 403.68 54.104 403.424C55.296 402.912 56.448 402.328 57.6 401.736C57.992 401.536 58.4 401.36 58.792 401.144C60.32 400.312 61.8 399.408 63.24 398.44C63.488 398.272 63.712 398.088 63.952 397.92C65.12 397.104 66.272 396.256 67.376 395.36C67.832 394.984 68.264 394.576 68.712 394.184C69.56 393.44 70.408 392.696 71.216 391.904C71.696 391.432 72.144 390.936 72.6 390.448C73.32 389.688 74.04 388.92 74.72 388.12C75.176 387.584 75.608 387.024 76.04 386.464C76.672 385.664 77.288 384.856 77.872 384.016C78.288 383.416 78.688 382.808 79.08 382.2C79.624 381.36 80.144 380.504 80.64 379.632C81.008 378.984 81.36 378.344 81.704 377.68C82.168 376.792 82.6 375.888 83.016 374.968C83.32 374.296 83.624 373.616 83.904 372.928C84.288 371.976 84.632 371.008 84.968 370.032C85.2 369.344 85.448 368.656 85.656 367.96C85.96 366.928 86.216 365.88 86.464 364.824C86.624 364.144 86.808 363.48 86.944 362.792C87.176 361.616 87.336 360.416 87.488 359.216C87.568 358.624 87.672 358.048 87.736 357.456C87.896 355.68 88 353.848 88 352C88 350.152 87.896 348.32 87.72 346.52C87.664 345.928 87.552 345.344 87.472 344.76C87.32 343.56 87.16 342.36 86.928 341.192C86.792 340.504 86.608 339.832 86.448 339.152C86.2 338.104 85.952 337.048 85.64 336.024C85.432 335.32 85.184 334.64 84.952 333.952C84.616 332.976 84.272 332.008 83.888 331.056C83.608 330.368 83.304 329.696 83 329.016C82.584 328.096 82.152 327.192 81.688 326.304C81.344 325.648 80.992 324.992 80.624 324.352C80.128 323.48 79.608 322.632 79.064 321.792C78.664 321.176 78.272 320.568 77.848 319.968C77.264 319.136 76.648 318.328 76.024 317.528C75.584 316.968 75.16 316.416 74.696 315.872C74.016 315.072 73.304 314.304 72.576 313.544C72.112 313.056 71.664 312.56 71.192 312.088C70.384 311.296 69.536 310.552 68.688 309.808C68.24 309.416 67.816 309.008 67.352 308.632C66.264 307.736 65.12 306.904 63.968 306.096C63.712 305.92 63.48 305.72 63.216 305.544C61.784 304.576 60.296 303.68 58.776 302.84C58.392 302.632 57.976 302.456 57.584 302.248C56.44 301.656 55.28 301.08 54.088 300.56C53.504 300.304 52.896 300.096 52.296 299.864C51.264 299.464 50.24 299.064 49.184 298.72C48.496 298.496 47.8 298.32 47.104 298.12C46.104 297.84 45.096 297.568 44.072 297.336C43.328 297.168 42.568 297.04 41.816 296.904C41.216 296.808 40.616 296.656 40 296.568V184.976L63.08 187.64L78.696 189.44L232 207.136V463.024ZM232 191.024L72 172.56V153.168L178.36 167.672H178.368L232 174.984V191.024ZM240 159.928L183.152 152.168C168.2 137.088 160 117.232 160 96C160 51.888 195.888 16 240 16C284.112 16 320 51.888 320 96C320 117.232 311.8 137.088 296.848 152.168L240 159.928ZM440 440.864L248 463.024V207.136L401.296 189.448L416.912 187.648L440 184.976V296.64C412.904 300.544 392 323.848 392 352C392 380.152 412.904 403.456 440 407.36V440.864ZM464 392H448C425.944 392 408 374.056 408 352C408 329.944 425.944 312 448 312H464V392Z" fill="#003f48"/>
<path d="M413.296 217.999C411.576 216.487 409.312 215.799 407.008 216.063L279.008 232.063C275 232.559 272 235.967 272 239.999V303.999C272 306.295 272.984 308.479 274.704 309.999C276.176 311.295 278.064 311.999 280 311.999C280.328 311.999 280.664 311.975 280.992 311.935L408.992 295.935C413 295.439 416 292.031 416 287.999V223.999C416 221.703 415.016 219.519 413.296 217.999ZM400 280.935L288 294.935V247.063L400 233.063V280.935Z" fill="#003f48"/>
</svg>
