<svg width="487" height="480" viewBox="0 0 487 480" fill="none" xmlns="http://www.w3.org/2000/svg">
<path d="M59.584 16.8403L27.584 0.84033C24.752 -0.57567 21.336 -0.17567 18.888 1.84033C16.456 3.87233 15.44 7.15233 16.304 10.2003L24.84 40.0883C24.56 40.0723 24.288 40.0003 24 40.0003C10.768 40.0003 0 50.7683 0 64.0003C0 77.2323 10.768 88.0003 24 88.0003C37.232 88.0003 48 77.2323 48 64.0003C48 59.9763 46.912 56.2323 45.152 52.8963L36.688 23.2883L52.424 31.1523L59.584 16.8403ZM24 72.0003C19.584 72.0003 16 68.4083 16 64.0003C16 59.5923 19.584 56.0003 24 56.0003C26.656 56.0003 28.904 57.3923 30.36 59.3923L31.864 64.6643C31.512 68.7523 28.176 72.0003 24 72.0003Z" fill="#003f48"/>
<path d="M363.584 128.841L331.584 112.841C328.752 111.425 325.344 111.817 322.896 113.841C320.456 115.865 319.44 119.145 320.312 122.193L328.848 152.081C328.56 152.073 328.288 152.001 328 152.001C314.768 152.001 304 162.769 304 176.001C304 189.233 314.768 200.001 328 200.001C341.232 200.001 352 189.233 352 176.001C352 171.977 350.912 168.233 349.152 164.897L340.688 135.289L356.424 143.153L363.584 128.841ZM328 184.001C323.584 184.001 320 180.409 320 176.001C320 171.593 323.584 168.001 328 168.001C330.656 168.001 332.904 169.393 334.36 171.393L335.864 176.665C335.512 180.753 332.176 184.001 328 184.001Z" fill="#003f48"/>
<path d="M307.584 16.8403L275.584 0.84033C272.752 -0.57567 269.352 -0.17567 266.896 1.84033C264.456 3.86433 263.44 7.14433 264.312 10.1923L272.848 40.0803C272.56 40.0723 272.288 40.0003 272 40.0003C258.768 40.0003 248 50.7683 248 64.0003C248 77.2323 258.768 88.0003 272 88.0003C285.232 88.0003 296 77.2323 296 64.0003C296 59.9763 294.912 56.2323 293.152 52.8963L284.688 23.2883L300.424 31.1523L307.584 16.8403ZM272 72.0003C267.584 72.0003 264 68.4083 264 64.0003C264 59.5923 267.584 56.0003 272 56.0003C274.656 56.0003 276.904 57.3923 278.36 59.3923L279.864 64.6643C279.512 68.7523 276.176 72.0003 272 72.0003Z" fill="#003f48"/>
<path d="M457.12 3.0957C441.744 22.9197 427.288 32.6397 414.176 32.0077C410.888 31.8477 408.168 31.0637 404.056 29.8797C398.272 28.2157 390.352 25.9357 376.216 24.0637C359.768 21.8797 352.296 22.5197 345.584 24.2477C334.568 27.0877 324.112 33.1197 314.512 42.1677L325.48 53.8157C333.104 46.6477 341.208 41.9037 349.584 39.7437C353.368 38.7597 358.696 37.8877 374.12 39.9277C387.072 41.6397 394.032 43.6477 399.624 45.2557C404.248 46.5917 408.248 47.7437 413.4 47.9917C432.072 48.8477 451 37.0877 469.76 12.9037L457.12 3.0957Z" fill="#003f48"/>
<path d="M473.68 43.0957C458.296 62.9197 444.048 72.6317 430.728 72.0077C427.448 71.8477 424.728 71.0637 420.608 69.8797C414.824 68.2157 406.904 65.9357 392.776 64.0637C376.304 61.8797 368.856 62.5197 362.144 64.2477C351.112 67.0877 340.656 73.1277 331.064 82.1757L342.048 93.8157C349.648 86.6397 357.76 81.9037 366.144 79.7437C369.928 78.7597 375.256 77.8877 390.68 79.9277C403.632 81.6397 410.592 83.6477 416.184 85.2557C420.808 86.5917 424.8 87.7437 429.952 87.9917C448.584 88.8397 467.552 77.0877 486.32 52.9037L473.68 43.0957Z" fill="#003f48"/>
<path d="M411.584 240.848L379.584 224.848C376.752 223.432 373.344 223.824 370.896 225.848C368.456 227.872 367.44 231.152 368.312 234.2L376.848 264.088C376.56 264.072 376.288 264 376 264C362.768 264 352 274.768 352 288C352 301.232 362.768 312 376 312C389.232 312 400 301.232 400 288C400 283.976 398.912 280.232 397.152 276.896L388.688 247.288L404.424 255.16L411.584 240.848ZM376 296C371.584 296 368 292.408 368 288C368 283.592 371.584 280 376 280C378.656 280 380.904 281.392 382.36 283.392L383.864 288.664C383.512 292.752 380.176 296 376 296Z" fill="#003f48"/>
<path d="M75.584 232.848L43.584 216.848C40.752 215.432 37.344 215.824 34.896 217.848C32.456 219.872 31.44 223.152 32.312 226.2L40.848 256.088C40.56 256.072 40.288 256 40 256C26.768 256 16 266.768 16 280C16 293.232 26.768 304 40 304C53.232 304 64 293.232 64 280C64 275.976 62.912 272.232 61.152 268.896L52.688 239.288L68.424 247.16L75.584 232.848ZM40 288C35.584 288 32 284.408 32 280C32 275.592 35.584 272 40 272C42.656 272 44.904 273.392 46.36 275.392L47.864 280.664C47.512 284.752 44.176 288 40 288Z" fill="#003f48"/>
<path d="M392 440C374.352 440 360 425.648 360 408C360 381.528 338.472 360 312 360H296C269.528 360 248 381.528 248 408V432C248 449.648 233.648 464 216 464H192C174.352 464 160 449.648 160 432V416H176C180.192 416 183.68 412.76 183.976 408.568L199.808 186.92L220 160H224C232.824 160 240 152.824 240 144V128C240 122.056 236.704 116.912 231.872 114.16C231.896 113.432 232 112.728 232 112C232 67.888 196.112 32 152 32C107.888 32 72 67.888 72 112C72 112.728 72.104 113.432 72.128 114.16C67.296 116.912 64 122.056 64 128V144C64 152.824 71.176 160 80 160H84L104.192 186.92L120.024 408.568C120.32 412.76 123.808 416 128 416H144V432C144 458.472 165.528 480 192 480H216C242.472 480 264 458.472 264 432V408C264 390.352 278.352 376 296 376H312C329.648 376 344 390.352 344 408C344 434.472 365.528 456 392 456H480V440H392ZM152 48C187.288 48 216 76.712 216 112H88C88 76.712 116.712 48 152 48ZM80 144V128H80.472H223.536H224L224.008 144H216H88H80ZM116 176L104 160H200L188 176H116ZM135.44 400L120.592 192H183.408L168.552 400H135.44Z" fill="#003f48"/>
<path d="M160 208H144V240H160V208Z" fill="#003f48"/>
<path d="M160 256H144V272H160V256Z" fill="#003f48"/>
</svg>
